<mxfile host="app.diagrams.net" modified="2021-04-28T12:29:46.748Z" agent="5.0 (Windows NT 10.0; Win64; x64) AppleWebKit/537.36 (KHTML, like Gecko) Chrome/90.0.4430.85 Safari/537.36" etag="LaK2uJoVrO-_h5Dnavxs" version="14.2.4" type="github">
  <diagram id="C5RBs43oDa-KdzZeNtuy" name="Page-1">
    <mxGraphModel dx="1422" dy="794" grid="1" gridSize="10" guides="1" tooltips="1" connect="1" arrows="1" fold="1" page="1" pageScale="1" pageWidth="3300" pageHeight="4681" math="0" shadow="0">
      <root>
        <mxCell id="WIyWlLk6GJQsqaUBKTNV-0" />
        <mxCell id="WIyWlLk6GJQsqaUBKTNV-1" parent="WIyWlLk6GJQsqaUBKTNV-0" />
        <mxCell id="bjYGnmnEsGefj7SVSaNM-13" value="" style="shape=image;verticalLabelPosition=bottom;labelBackgroundColor=#ffffff;verticalAlign=top;aspect=fixed;imageAspect=0;image=data:image/png,iVBORw0KGgoAAAANSUhEUgAAAU0AAADlCAYAAADXyKXzAAAgAElEQVR4Ae2dh1tTSfv3n3/tvX6PDWxgdy3YcV0fe1nbrrpKsyA2QAXBRseCIlItqBB6SUIvaWCvEBD4vtc9ycAhGyCBUEJuvMY5mTNnZs5k5pPv9P+A/zgHOAc4BzgHHM6B/zjskz1yDnAOcA5wDoChyYWAc4BzgHPAiRxgaDqRWeyVc4BzgHOAocllgHOAc4BzwIkcYGg6kVnslXOAc4BzwGlo9vX1QWm6u7thNBqhUqmQlpaGu3fv4saNG4iIiBAmPDy8/1q6sW3JG84H98+HyMhIUd7v3LmDJ0+eoLCwEO3t7ejp6RF0kXWlt7cXZPjP/XNg1NDs6upCTU0NHj16hNjYWERFReH69eugQiQNQ8H9ocDf4dDfIZVzyh9Z3q9du4bo6GhhSEDU19ejo6NjkMhwf2TwGzgNTfq1JGX57Nkz3Lp1q19V2ipK289c+YaufJw37ps3EpzyO5SfCaBUP3JyctDW1sYqcxqx1mloNjU14f79+/2wlIVF2lRoqMBQE52UJ12TzYbzYLqWASrjyvIvBQPZ1AJ7+PAhmpub+5vs04gfHvkqI0JT9smQTV98SkqKAKAsJGQTIKkvkwoHKdDs7GzxC0u/smw4D6ZzGaCyTobKPZV/6tskiErFSTbVDxIajY2NApzUWpP1yiOp4+Yv7RA06Uv++PEjUlNTBTDlLykVDtkB/uLFC7x580Z0hBcVFYEN54GnlAEaBKUBICr/z58/R3p6umiaSwUqwUkDRdS1xdB0b2qOCE36gjs7O5Gbmyt+QUlZEjSpqZWQkCCUZEFBAUOSfyg8vgwUFxeLPCCIkvqMj48X9YSgSYYGiV6+fCnqEylN/nPPHBgRmjRKTv2Y1Dcjv3yyCZj0q0q/sLKweIqy4PdkFW2vDNjWg7y8PNy7d69fbJDgIJDW1dWJ5rl7IoNTPSw06dfwx48fyMjIGDS1gkYFqUAQMO0VHnZjqHhyGSClSe9PdlZWlmiqyzEA6t98+vQpSIyw2nRPAA8LTWqav3v3Djdv3hwETeqzefv2LQOTm+RcBoYpAwRNMjRARN1ZEpyJiYmiXjE0pyE06ddQrVaLPkxqktOXHhMTg1evXonC4Mlqgt+d1bSjZYDGA27fvt0PTWqplZSUuCcxONXDbw33/ft3MQBEsJQj5jSCTqOEjhYY9sdw8fQyQAOlVG9kPSIBQivpWGm6J4GHbZ5//fpVrCcnYMpBIOqPoUIg+208vULw+/OPwlBlQDkw9Pjx4/4BIapL1ET/9euXe1LDw1M9LDQ/f/4sJuXSL6RsntNUCgKmskAMVWjYnYHiyWVACguyaY6msl8zKSkJZrPZw/Hjnq8/LDQ/ffqE5OTk/r4YgqeEJlUGWSg8uWLwu/MPw1BlQNYPCU0aOZdNdJqyx9CcxtCUKpO+cFoSJ6cayUIxVKFhdwaKJ5cBWT/IphknEppUjwiatGiE/9wvBxxSmnIQyBaanlwh+N35B2GkMiChSf6U0CQRwtB0P1jKFI8KmlQYuE+ToTESNPj+QBlRQpOVpsSPe9oMzWEmJ3OlH6j0nBdjywuGpnsC0l6qGZoMTZ5zOwFlgKFpDz/u6cbQnIAKwyptbCptOuQfQ9M9AWkv1QxNhiYrzQkoAwxNe/hxTzeG5gRUmOmglPgdxqaWGZruCUh7qWZoMjRZaU5AGWBo2sOPe7oxNCegwrBKG5tKmw75x9B0T0DaSzVDk6HJSnMCygBD0x5+3NONoTkBFWY6KCV+h7GpZYamewLSXqoZmgxNVpoTUAYYmvbw455uDM0JqDCs0sam0qZD/jE03ROQ9lLN0GRostKcgDLA0LSHH/d0Y2hOQIWZDkqJ32Fsapmh6Z6AtJdqhiZDk5XmBJQBhqY9/LinG0NzAioMq7SxqbTpkH8MTfcEpL1UMzQZmqw0J6AMMDTt4cc93RiaE1BhpoNS4ncYm1pmaLonIO2lmqHJ0GSlOQFlgKFpDz/u6cbQnIAKwyptbCptOuQfQ9M9AWkv1QxNhiYrzQkoAwxNe/hxTzeG5gRUmOmglPgdxqaWGZruCUh7qWZoMjRZaU5AGWBo2sOPe7oxNCegwrBKG5tKmw75x9B0T0DaSzVDk6HJSnMCygBD0x5+3NONoTkBFWY6KCV+h7GpZYamewLSXqoZmgxNVpoTUAYYmvbw455uDM0JqDCs0sam0qZD/jE03ROQ9lLN0GRostKcgDLA0LSHH/d0Y2hOQIWZDkqJ32Fsapmh6Z6AtJdqhiZD042UZjGKi4pFelWDvjcVioqmnlEp0kTQvH7jOiIiIhAREY74hHh0dnagr6+PzaTlQa817wH0kekD/aM/aTM0B1W0sSkHVl4Tl38lqiIUq1QoLFZZoamCAJKqCEUq1dQ21jL3b6UZj44OgiZVXDaTkge9vegl09eH3t4+9PUqvwcLPBmaDE03UpUDUC5RkbpU4U3RW7woeYHskmxklGbgaelTZJRkTGnzrOQZMkqeISE3EeHJ4biccAWX4i/j5pMYaD9q0fC9wSFT/61e+JO2o88560+GL216XnntbHhD+VeGqbweyv9o3G3Dtf3c+K0JrT90eN/5AT9/daCnp2fgB8wiPe0xE9w8Z5BOWZBSU5zMm+K3yC7NwcPSh4itiEFEZQQuVl3EefUFhKov4EL1gAmtDgUZpZu8lvekLd3JVj6jvJZ+bJ+x/az0pwxPhKW+gHOV5xBSGiJMcEkwQspCcLn2Mq7WXWUzWXnQEIGYplg8bH2Iwo8FaPnZgu+/vgv1KbpN0MvQ5Cb1gHpzh7ygJvirknzcL09FeOVVBGpP47T6FAI0pxGoDkBwdSCC1IEI1ExdE2CTPtvPUznt0z5t6iAEaAKECawOxI2G68h/n4/35vf49avbojotXZ2D4MlKk5XmlFGaxeK7KIaqqET0U+aV5OFWxR0Eq4MQqA5CsDYIIdpAnK89jwu1YbhUexEXay+Ka/ocVntRGHvXF6z+yA/dp89K//afUYZpec65ZygeZRgDny1psNyz9SPjkGmVn5XPSDfpR4ahfE/be/IZZTjSv3xePqP0K92G82N7TxnHwPO2eT7wfcnnpT3wzOD8U6ZL+pW27TPkPtQ9EU7NRZyvDcWZmjMIph/e6kCEaEKQ3JoM/c9WdPeaLX2eoq+TuGlRngxNhuaUgWZR/8h4MfJKXyCm4iaCq4MRQAW6JgBnNWcR1xqP5x9foPhrCcq/V6PymxpVbDgPRlEGyr+UCmWZqEvChbowBGoDcZqUp/YU4lvvoe2nCb09vejr7UNPX69lhB3gPk13aKZ6ShoLrT9gb4pfIa48HsHqsxZgVgcguukmqn+ooe8yoK3DhHed7TCaTTB0GWDoZsN5MIoy0GWC8Wcb2n61QfNdjYSWeJzVnMNpdSAC1AFI1afgR893CzTxC+i1jKiz0mSlOXWUpphCVIy0ssdigCdIHYCz2mDcbbmDpp/N0JsNMJoN0HcZoesyCmAazUaw4TwYTRlo726HUZQjI4xdbajvaEKKIRVntGcRqAnC5bqLePPhjZiK1EtN8z6G5tSBBYNbfBc0YT2/6BXult8VfUtBmtOIqIuE9ofWCkiTKORU0NlwHri6DBi62qD9ocG91nuiDz1QE4x7zffQ0W0WKpOa6fTHSpOBNWV+PAqLi8Scy6uVV0XfUlhtKJ62p0NnNsDQqYe+m6HpalBweAM/PoZuk+j+yX2Xh1BtGAI0pxDZEImm763o66HJ75ZBdIYmQ3PKQJOUZmr5fZxVn8VpbQCuNVxD5Y8KGM1tMJr1ICXAlXygknNeuDYvDN1GmMxtqP6mxu2W2wjQ/oPQ2nPINuWhr7dHDp6z0vSUQRb3eE8VksoTEKIOQYAmCNEtN9FgbhADP/puHUxmSx8Uw8K1sOD8tORnG/WZd5nQbG5BWtsjMS84RBuAu61x6OvrZmi6B0TcazL6WPO0uEiFhAoaNQ8WfUqxLbFo7mpBWycN/OiFCuAKzsAcrzLQZtZbB4YMyGx/Zl00cRoxzTHo7aPJ7tw8nzLN0rHCZro8T5Pb4yviESSgGYhbzbfR2kUK0yhGzE08AMTdE+NYBkxdBE2aoWFEVnsWgjS0Yug0Yhpvoqevx7r/EQ8EMTinUJ8uQ5NV5HipSEfCZWhOIRhMFyU43u/B0GRoOgK38fLD0GRoup2KZmgyNMcLiI6Ey9BkaDI0x7H/y5FKyH7c60eAocnQZGgyNHngyIkywNBkaDI0nagwrArdSxWOx/fF0GRoMjQZmqw0nSgDDE2GJkPTiQozHsqFw3Qv9crQZGgyNBmarDSdKAMMTYYmQ9OJCsOq0L1U4Xh8XwxNhiZDk6HJStOJMsDQZGgyNJ2oMOOhXDhM91KvDE2GJkOToclK04kywNBkaDI0nagwrArdSxWOx/fF0GRoMjQZmqw0nSgDDE2GJkPTiQozHsqFw3Qv9crQZGgyNBmarDSdKAMMTYYmQ9OJCsOq0L1U4Xh8XwxNhiZDk6HJStOJMsDQZGgyNJ2oMOOhXDhM91KvDE2GJkOToclK04kywNBkaDI0nagwrArdSxWOx/fF0GRoMjQZmqw0nSgDDE2GJkPTiQozHsqFw3Qv9crQZGgyNBmarDSdKAP/hmYgAjSnEdsQg57eHvT0/UJfXx/+g2H+Pn36hOTkZISHhyMiIkKYnJwcqFQqFBcXu12lHO9zuzn8ojGVCT7C172U2XRT0v+GZhACNQGIaYpBdx9Bs5ehyZAbG+RcnX8MTYbmZILYHjQDNIGIaYxGd18X+nqBrq4uVpqurvgc3uhBzNBkaE4laAaqgxBYEYyo8hto1jVCrdaIVjY3z7nvc0xNalf+SDA0GZqTCU3dz1Y0fGqAxqhBWlUazueex4X0UETcv4qk5CRERd8UXZQMTYYmQ9OJwYLJrNQct2t/VAxdRjR8boLWVIPKlkoUVhcgMz8TKWkpiLkbg/BrA2M5ckyHbIYmQ5OhydD0yFF2fYcBKq0Kj3PScSfhLiKvX0N4ZAQiIyIRGXENERGR/QPgDE0G5ZQBpbJ5z81z1yopVqYj5Ge3CfqfBlTrtXhR/ArJj1IRcycW0TejceP6DQFPJSzlNStNBuiUAShDc4RKzorYtYrYbICp2wRDlwHGbgMMnQZo22rwsvQV4h7G4erNKwi/Ho4IaqZHWqZccvOcgTllgEmKk6HJ0JxMdWw75SikLAShuedxKSUMN2Ku40ZEFCIjI7lPU9k85OvRTxdyRd4xNBmaUwmagZpA/KM9jai6KHz78gXVNTXIzs5maLqisnMYroEtQ5OhOZWgGawORpAmELHN0eju+YWuLjM6OjoYmgw81wDPFfnI0GRoTiVoBmmCcFoTgNjmGHT1daG3t0csOueBIO7XnDL9mgxNhubUgiZt2GFZey4260AfQ9MV6ojDcJ1SZWgyNKcWNIPELkcxjTfR09djRSa4ec7Qcx30xpqXDE2GJkOTm75Tpuk7VqBNxPMMTYYmQ5OhydB0ogy4KzRpcrQ0xi4TTF00YdpoNQYYafJ0l2nQxGzybzK3DXIbGzAoDZY4xxaO54Lbdp4mDQTRJsTcPHeiEk+EuuI4BroH3A+aJrT8bEWFvhJFDcVQ1atQ3FDSb6qNarR8b4bBbIDBTJtDNKKksRRlzeVo6WiFsdNV0DRB97MFZboKlLWUo+lLowth7DkQZWgyHN1O5bobNAmEmjYtzl8LxcFjf+LPvw5i/7H9OPD3QRw6fgihV0ORVZCNuo/1Qom+qXmDE+dOIejCGdS8r4O+mxSoa6BU96EOodcu4MyVs1DVqlwWrqvS5w7hMDQZmgxNFwFpqApPzeHixhL479yKGTNmYfny5Vi55jes9FuF5b8th9c8b6zfsgFP8zNg6NTjeUUedh3ajUN/H0bdu1rLmmdXpLHbBE1bDXYd2I3tu7cjr+Q5Q3MU+crQZGgyNEdRcYYCpF33biOKm0vgv2sr5s2bh/sZqSisVaGwrhDZqmzs2LsDc+bMRuiV8yAlWPu5Dm81hXirLkTzD0uzvf5TPeo+1kHfqe8HXcv3FpB70zeLH4q79Wer8Kdp04BM3Yda6Dr0MFLTv4sUbw32HNiD/xE0S/P6w7Kb7vHOFzcNn6HJ0GRojnPlpb7KkqYS/L5zK+bPX4DXZflo7TTAaDYKc/XWVfguWYQTASdRpatCYX0BLlwLxZXoK6j9WI/Gzw0IunwG/5w5jUpjJYwdRtAej+kvnyIwLAipOffR+r0Vzd9b8LziBU6dOQn/7Vvhv20L/go8hvzqArR+b4beTLvz1Apobt/FSnO0PxQMTYYmQ3OCoZlf8QotVsVI6u9y1CX4+PrgROBxVOkqkVWYCb/Na+G/3R/VBg1q39fijwPbMWPGTFyJvoraj3WobK3Czn274Lt0EWJTY9HyswVpLx9jyfJlmDPTC8tXrsDqtasx4/9mwmvePLyoeC5UKENz7H3DDE2GJkNzAqHp7T0XMYkxeFaQheyCbCSkJ2Lj1o2YOXsGLly/IM6eySzIwtqNa+G/zR/a9lqhKgmSi5cvgvc8b6S/TsexwL/gvWAuQi+Hir0dNe1ahEWEYemyZbhwPQzV76tQYSxHaGQYvL3mIfL2ddS8r2Wl6YLvmqHJ0GRouqAiDdfUUzbPZ/x3Jnx8FmLRcl8sXuKLhYt8MHvObGzfvQO5Jc+hNxuRWZiFtZsImltQZaiGvsuAlp86pGanwNfXFytWr8Dc+fPEyHuB5i10nQYUN5bi74C/sWr1KqRk3EehtgBv1G9xP+ch5nl74WTIP6g0VDE0XfBdexw0VSrVhEOiuLh4xDgpXa5Km6vCcSTdkzF/1P2mHA30ac6ZPQdH/jqCwItBCLoQjLNXzyL2fiwKagrQ9LVJDMw8K8gU0NyybQuqjRrhZjDr0filCXsO7cFcby/M8fZC0tNkNH5rEnM7i+qKcPSfo/Dy8hYj8mvWrcaadWuwcs1KzPzvDBw/9Rcq9ZUMTYbmwITnkSqvIyCZqpAY6d3s3Xfkfe09p3SzDWOq5I87Q3PevPlIf5GOMn0FKvVVqDJVoe6TZVScjlQgxZpZmCma51u2+UNt1MBkrehqvRrrNvuJJvrsObMQGh6KakO1WEWkqivCkRNHsGL5coRHh+Puo3jceXAHdx/eRdz9BGQV5aDhSyNDk6HpODSVMLC9toWBLSxs/Tv62VXhOBqfK/1R2u2l356bK+N1JCx3hiaNnr8qz4euUweTud0y5ad78OCEPWjSyPipkH/gPX8OzoeHYsPmdVi7bjVS0lPQ/LUZZa0VOHXmNFat+g2pGSlo+NKMus/1yC3JxcXIi8h4+5Sh6QJg0o+axzTPS0pKUF1dDbVabdeUlZWJJrQzUKBnhgqT3AnGw4U33PNDpdMZ99LS0hG7BYaCFKW9oqLiX3lF70V5OdRzE+Hu7tDML3sl5luaOtuEipQKU/aLiub5xrWQSrP5WxPuPriD+QvmYf+R/ShpLEHC4wSs8luNbTv+AA0c0Wqi6LhoLFqyCDv3/w+xiTGITbmFvYf3YfGyJXiQ/QCNX5tYaboAnB4DzfLycrx//x5fvnyxa2pra50GQX19PT5+/Gg3vE+fPoHiHA4idXV1+Pz5s93nh0qno+4UrkajGTb+4dJGcG5vbxfpk2kkm96rsrJy1OEOF6ej99wPmkaUt5bj4PGDWLdxHd5Wv7FMUqd5mmKTjsFK83nZc+w4uBP7jx0QI+O1H2ux78herN6wBjmFuWLCe+2HOovi3LoRN+JuoOVrMwo1hTgRdAJr1q/GGr9VWLveDyvXrMKxU8dR3lwpJrnXvqvD34F/4/DJI8ivem1Rui4AiQS+J9geA02q6GazWeyobO+/5uZmp0Gg1+vR3d1tLzj8+vVLKLXhQNDS0oK+vj5h7AYyBseenh4Q1IeLf6h7pCR1Op14B0pfb29vfzopXAKqbZfGUGGNh7u7QZNAQqt50l6kISEtATVtWuvmHHJno8HQrDJU4X7OfTzKS0PTl2Y0fm9EwpMEJGUmi6Y4gZZ2PyqoKURiRjKel70ErQ7S/dShvKkMcY/icCnqEsKuX8St+7dR3lIhgElr4Fu+teDp66d48jIdGpOWoTmKHwyGphVMDM2B/mGCIilaAib9KcFOPxJVVVUMTScrG007oqWMtAqItoQjkFp2NRpiMw7yZ6bt4yw7HNFZ27RtnAiHnqXzt4VSbYOB3MW53BSmNXxxz4TWjlaxEkjep3gpfpkGT1CGrn5HhiZDc5AaJQUpFbSEpgQnKU6CKflhpTlYHQ5fMeUemQYYfhlh+tXWDz+9nb0txX6X3QbIvk4Byl9G6My6/udEs16CmEDYPQBCMdpOa8079VY4Uvym/vXnRgJsN++pOfx3NvT3y9BkaApoShDSQI9UmVJhSptUZk1NzSDIjkfze6Qw3al5LgAo1B8pRotSJHASCAl0eptNhwcqsskCQus0JNqoQ6pM4eeXBXwEQBkurS2n+MR9Ct8KU5EGoTAN0Jv1QnkKiA4Z99DAGEif5/phaE4xaEpAkU39h6TunDX0XFdXF5wd3CJwGgwG0U8r02HNHpGGr1+/ipHz4WYEjAQ8V9x3J2gyZKYfXBmaUxSaBL13797BZDKhra3NaUPwo75HRyFFwKTBsm/fvg3qwyR40h+lh0b7KTyG5vQDAcPd8e+UoTnFoGlNDjo7OwXEZLPZGXs08ygLCwsH9WVKWErFaasyKT2OAtnV/lhpOl7BGYauzyuG5hSDpoQUQZMml7saOEOFR3NKpcqU4FampaGhQaRFwnIy1SZD0/UgYLg6nqcMzSkITUqSVJpDQc4V7hJ8ZNsbMad0yBFzuWLKFfGONQx3gyYN4IhBnG6jOO9HJ0e1zTSibamsYhBHLKe0jnRbB3T6n5UDPO5gdxvRZj1BUwxGuUOanUgjQ9NDoSmBSQAjIH7//r2/L1MqTLIJ3k1NTROmeB0BqttBU4xSm9D6Uye2ekt9lorLNy8j7HoY7qTeEit5Wr619k80t2zQMXDUrommFjlRqSfbb8abDMSnJaC8tUJsWzfZ6XF1/AxND4WmhBPBs7W1ddDKJglNUpm0dHIiuwlkuoaz3QmaNN2HVGTztxbkFOVi+/4dYs/LRUsXiyMuVq5cgS1/bEF8Wjxq39cJOBI06aygt9pCqI1qtLkRMAlQx04fxW9rVyDz7TMYOqzHerjZOwwHWoamB0OT+idpUw/bvkzKEqkyaaWU7MccDmQTec+doCkrX3lLGfYc3oM5Xl7Y++deRN66hqi4aBw79Rd8F/nCb4ufWN6o76S5lAY8zX+KA0f3Izk9eWDupZuA517aPYRdC4OqTgWxksnaBSHzwt1thuYUhKYE1nhvjEEwpKY3TVqnOJV/9Jk2I7GXBmXTfiJhKeNyN2i2dZvwuuo1Fi5ZiAVzFyCvJA8NnxvRRJts1BaJI3W95s1BxJ1IVJs0eFWZj5CLIZi/cB6OB/yN9NcZKKpXiYnpVcYqvK5+A227Fq8qX+FBzn2UNBYLhdrwqVE8m5iRgHsP7uBB7gOUNJaCQEzqtY2WT5pp85AyPHn1BHFpcUhMT0RuSR5oAxCCgVDGnXrkFOVA26ZFua4CT148EevZqdmtblOj5l0NcotyxHr4lGepoA2QRd+r2HzEhIyCTCQ+SUJZa7lwp7Tmq1+juKEYlbpKPMx7hLhH9/Ao77E478hoTR/BlE7TfKt5i6SnSYh/kiDSVqWvgqpehbyyPMtxxubJXc3E0JzC0KR5kY5uBSe3qCPIOaIMpcqkvkxqhhMkleCkzU1oQxEJKprGRGmhnZNkmuQ1jbw7EqcMa6y2u0GT1nm/qXyNhYt9BDTpfPPaD/WgASFaRpmanYrzV87h8csneFtTgLNXzmLVmlWYPXsWlixfgm17/sDNxJti043Hr57gyImjuHj9Inb/SeeXb0Pa8zRo2muQmJ6EPQf3YM2GNfBbvw7rN63HsX/+wls6jbKjVQCnUPsWZy6FYPO2zfDbsBbrNvqJM9CjEmPQ+KVBpIc2/th3dD8uXLuA06EB2LZzG1b5rcLmP7bgUtRlRNyKwM79O7B+83qsWb8GJ4KPQ23SQGem44VNCAgLxOZtm5BdlCOU5ouyFzgRfFLswBRwPgCbft+MtX5rsH7jBoReD0P9xwZrn60JT99k4M/jB7F2w1r4bfTD7gO7EXIhBEf+OYojAUctq5k6GZr9FXOslWm45wkm7rDLkYQX7ZJEzWZntoIjvzSp3ZGRboIcTSNSAlPGTTZtAaecHE/9muRG8zVtDTXhx7J353Dfm7177gRNMWpuNqCiuQIHjh0EHaxGx1hExEbi8ct0FDWUoP5zA/Q/qe/PJI6kuJVyCzv27BBHV2z+fQsCLwaKs370HUYkPE7E4iWLsWzFUuz5cy8uRIQK5fmsIBsbf9+EZcuX4uSZkzgfEYaDR/7ErBkzcSLwBDR0/nmnQex+tHjpImzd7o8zl8/gZMhJrPFbgzXr/fCi/JU4j0j3U48Vq3/DvIXz8Pv/fkfQhUAcDzouTrhc6OODTVs34XjAcZy9eBb+27dggc8CoQxJ0Rq7DdixfydmzZmJh7kPBejTXz3Fxi0bMW/+PGz931YEng9CwNnTWLlyGWgH+peV+Wjt0EP/Uy/OPVrou0CcBX/28jn8HXBcHNsxa/ZsrN+6vn/DE33XwPnvE93cZ6U5xZQmJUcqPmkrm80jXTs6cENglX2ZMh6yyVBznVQmgVUqSFKy5C7TJ/3SZ6PR6BCo7QFwNG7uBk1aN97yvRVvqt9i77F9+G3Nb5g7by5WrFqJoyeOIelJktjvkkbXxe5DBMe0BPgs8UF4TLh1z00TdF16xD1JEBsNH/vnGIpqi8VACzWpY1NvY6HvQvx57CA01IT+VIsCbQEW+izA7HmzUdJYBlNnOyJvX8OBvw/g0fOHomlc0lyGsMgwLFu2BNHxUTB2G6H7oceKVQQ0m8MAACAASURBVL9h9qxZePL8CZq+NaP+Qz3+OnUMc+bORtCFINS9q0PL1xaxubG3lzeOBfxlSQtB88BOzJo9Ew9yrNDMT8cG/43YsHk90l8+Eadr1nysQ2jkOcz+70zEpd1Fw9cm0ez//Y9tYs/RjNfPoO80itM4r929jlles7DOf73Yxamtu93STJ+kPl6GppVCU2VrOAkjaVuTN6JF/unPEWhSU5ua/qQylX8yTlKUBEkJTbIlNGU80qbnCZojbbg8GjgO9Yw7QbNfBdGuQmYDGr804lHeIxw9dVQ0QRf4LMSCBfNxPPAEVDUq6ElxdRgENH0X+yIiNkJsA0fbxNEemnGPE7B48RJE3Y1GHTVrrUdlRCdEYYHPfOzcv0v0P8Y9iENsQgwWLVqM/zfz/6Gg5q14ns5QL9AU4FFumtj9Pe5xPE6dDcCSxYvENCgBzQ4DVqxZCS+vOSioVYlt50zmNoRcCobPUh8BXoPZJJrK1Fc7b95c7Dq0ywpwPXYc2IFZXjNF36WuQ4/0/KfY6L8JBw4fFP2k+m6aTdCMzIJMzJoxB1dvh4ujOMpayrBlqz8O/vUnCmsK++ewPsl7jHkLvLH+9w0iLfpOuWuU4xPS+78HF4CWoWmlxlSBpi3ElJ+Hu5YQGwqaysEbampTE5v+JDglMKlbwN6IuRKaMi6ZHlaaQ1deMefSbED950ZUNJVD+65GgI52OCquL8Gl6MuiST1r1kyEx14VJ1IaOo1IfJKIxUsXi1F22sZN7n8Z/zgBvkt8EXU3Sqg/sZdml1GoxDlec4SCXbZyKVYsX4HlK5Zh1eoVWLx6MYobStD6QyeOwfDbuBaLFi/C8uXLsPy3pfDxXYBFi3xxOfqK6FvU/9SJUyy9vb1RWKsScdMAEg1OUdw0YGWBkAn51a8xf/587DuyT/Rpkr+d1Dz3moWHuY8szXMBzY3Yf3g/NG1a0M5Mzd9b8bz4JWbOmIGrsRFo/NyAitYq+P++BfuP7BODQWKqldkoAD93gTc2/L5BdB8YrRPnXQlCZ8JiaFpr/lSBpoQYJcsWThJStrbS30jQtFWZEpYyDNu+TKn2GJpDg3G4CkdNZxopT0pPwqJlvjgWcFwcV0Fqi+BB/YAnQ07Ay9sbIWFnRBOVBlMSHyfBZ7GPgKq+2wSd2SAGaUgZLrIqTWoyS2jeTIiG76JFOBF0Ukwqr9BXCbtQo4JKWyTmiZY0lcF/mz/Wb1qHe2l3UdxYJPpaY+JuwmeRD65OIjSbvjSIH4Ft27fBb52f2LW+4UsD1CY1ouKiMMdrJkNTVsaJst1lIEgOzEhoSpjZgtL2s/RnD5qyX5I25aB8kPtlKuOg5ylu+vGwt+EHQ3N00NR3GcQAzIvi5/Dyno15CxYgqyAb+h96GDtNqGitxI79/8PMObPE8RT1nxrEgNCDrIeY7zsfB48fgu6HQezi3tqpF9NwZPNcCc1bKbGYO38u9h3ZL85Hp4GVurZabNu1Ff47N6FaX4H01+nwW78WJ06dQJl1KhJNSaIRbTqQ7UrU5CnN+k/1oKlHdHYRKea1G9eJkf8/dm/HLK85mPF/MxiaEwVLGY+7QFPCi7Zia2xshFarHdHQxsA0/YfMUEdREDilyqT9NiUwJXwpXgKucsRc5h3ZDM3RQVM0z7tpVLxajFT/d+YMeM/3xm9+v2Hj1k3wWeKLWbNmY92m9Uh/81QoSuovzCrMxqq1NGDkLVYM3UyMATXb4x/HYfHiRaJPUwnNHFU2/P+3FXO8veC32Q/7Du3D0hVL8d//+y8uX7uM2k/1qDaq8cfOrZgzd46Y9rPr4B6sWrcK3vPmYMnSJbh68+qkNc+p+8LUbRCroI6ePAofn4WY6+0lZhr8+fcheM33YmgqK+REXFM/Hq2jtvdHwBhN85wOH5MjyrbhjvZgNUoL/VFaJQCVAzKOXA+VnxQeNb9lHMo0k8okSCtVJvWDSkPP0rva6z5Q9mlKVTtUGlzh7o4DQTTAU2WoRMS9cPj/4S/6Bhf4zsdqv9ViOk9e8XMxSi2PsaCzzMntZMg/2H14L24/uC36B5/kp+PA0QO4/ywVTZ+b+5vndGBaXslz/BV0XJxauey3FVjnvw7nIs6LpZg0h5Imjqe/eiJOtly1diU2+G/AmctnQRPUaT5mwqMky+R2mvrzzxExdahCV2FZkWRuQ0xSrJi/mZSRbIGr2YiShlLs+nMXzkWeFwM31P96Nvwctu3/A3mlz8VoN00pOnH2JEKvXUD9x3rLpiUdehSqC/D7nt+R9ITObm8RYb6qzgdNUXpVkY/S5hJo2zRIzUiF9/y52LLd3/K+4piPyRsM8rg+TXvAIHhIaCoHTEaq4CNBk9QthTFUmPZOo5Tpc/UuRwQzOp1yKMiT+qRNj2m3IzI031Nek03H+Sq7DijPKK1kaFCJwCmfo/mfBN+h3nukfB3pvjtBU5zdQ2fyUJ9kp16cSlneXIbCmgKoagtR0lAMrUmL5m90AJplnTotoyTT9L0FapMW5a2VoCk61NRv+NKIitZqNHxsEsqzvz+124jmHy2oMlWLlTdF9SViNRCtZ6d+T12XAfpuo5jaU6GrEoNQ1DTXvtOi9nMdqtvVoBVFFF5bVxsqdVWobK0EDQrRoWyUNgqrSl8NakrTSD656b7rhD9te03/YFVNew0qdJViUIvCo5FytVGDmrYa6wi7ZQMSGpiiOCjegYnxAVizfi2uxoTjrbYALypeCaCTIg+5fEbESQfUyQPn+t/fBaPijoblUdAkEEkoKVUWuUlojlRhlfcJEqQo7f2R+0jTcCYSmqS0aQd4e+8vAUhAHcrYe08Ki0BK9+g56lIgQ+fLOzLBXpmXzly7EzSpIoomuvX0SYIobQdnOUnSopbE0kXrAWt0LbaL67QcjEZrt8USRQKFWQ+x45FYRmirtKyfreu8KU5pKA39YSjPBepPh6XrgZr/5E+mmVSjeFZsaWcUA1EC6HSEMLlJxSemUw1MNicAEuDpWfm8mBqlWINueX8jjL/onCRLePTeKRkpWLvBD4uXLRErmuiceJqwv23HNrzVFIo4KQ/oh0CGP9G2x0CToNHR0WGPbwIktNOPsmnqSCUmdUUKjeBhCyMCCYFjuObqREKTmte0ltw2nTJDlO7Ka3lfglV+Jj9DGeoCYGgO9IH2Q1NCRMCD5l2SH8v8S7oWYLPChq5pZN0CMcvxv8KP1Z9lfqYFTAJgwt0KKeuhagIm1lMnRThWaFnCGdh6TkJHxG/d+9NgpnXoEnyklMnI5YsmMfJvOdSN3MifTKv0M/D+wp/1gDgZF/nvB7A1X+gerWt/8vIJzoWfx6Hjh3Hk5FFcunEJuUW5Yms9eleTdfnpQFiKuBRhjdd9j4Emqb4fP37YhQZVflJhwylD26YmLRv88OHDv5qsEi6kuIYDJkF5JGgS6B2BtyN+aCBHQnMoKEogDmVLSMr7tp+lO0Nz+EpsgaXCj0KBCfgQABVGVn4Cxr+eVfiT9yygHexX3qOw7IUt3fvjGrSHJ6njgQ2TCfRi3qgEodWvErIyHLItc0z/rQxlOpR+yY36XmmqUVF9MYoaiqFp11h+PEj5EjSF0lTk3wSAUplGj4LmUIMgVPkJqPLgsJEgRDAkvz9//uyHsBIgpD5pieJI4YwETdknOlI4jtxXQlPCbay28p3lNdmUz+O5Ft3dmufKCsfXkwc7V+W9R0CTIEfNRQkpW1hQRae+OVJiNMVH2Uy3VYv0mab20PQcaoLTs/SnhAa500DKSDCT6ZFhKMNx9UCQbJ7LOESix/CfvTTLPKB8ZGi6PxxcBZnpFo5HQJPgRSAktUVAs/2TlZ0UIk38pj0mCYyk9KiJTM12smlLNJqWowSmPXhQ05yeHw00ZdpoRyYahXZknuZQfpT9ipR+6rclFUhQIyOvpS3dbW26T/lir/+W3p8UN+UJ+SNDswoImrZdGiPlh6P3WWkykCcTxB4DTVKIVJGpUitBR5CS0JQ2gZWa69RnSX2ddPY4jQjT3pMSutKvhJwMkxQrTcFRqtWhYGBPacr0UDikNmnwarRG2d1A7y8NpUdeO2rTDw79GCj/ZB7QgBj9sCjDGuqdXeHurtC09CtaBk3sV3o58DIYipbnBrvZf579TES+eAw0peohVUYqTlZ4CTslDBy5Vj4vr0mJEeBqa2tHVJkEj6Gg6Uj8w/mR70Sq2BWQojAImjStSL6rMn7l5HZXxTdcOO4ETTlyTiPFtZ/qxKAGbd1G8yNpR3PawIOWTuo6dJbBDrMBLT9aoH1fA+27WrGJr6GrzTXTa/oHUEzQ/dCh7n29OIuINijunz40wYMqEwE5V8fhEdCUwJRKiJqPpJpIzY3lTwJE2hQmAYTiGa7Sy3sMzSKH8knml7TdCZpUYWk0u+Z9LaKTbyI4LATBF4MRfDkEwZfPIOTSGdxKuoXiuhK0/NCJKUg06Z1W8tAu6Q20Fr3bNdAUE9JFeoyoaK3A9Xs3EHH7utizkjYEoUnsrgbMdAzPI6ApK5sSngQ3gpxUZc7CU/kcXZMKo1Uz1AVA0JRxybjt2QzN6Q9NAiatBKKpM/47t2LGf2fAe/YceHl7CUMb+M6cNQP+O7Yip+i5gGamKgtrN/mJ5Za0kkZOIRozgAiKvywAfqN9g/1/7ce+w/tQ1Vwpzg8ydA5MUB9zXNNYsXoMNJUQo2vqcyRoUXNaCUBn4EnPkaG+RxpkkSPGyrjswVK6MTSnPzQFfLqNKG4uhv8uf8ybOxdxD+7hVcVrsUTwQc4DbNy6GTNnzURYxAXUfazHU1UG1m5ai63b/FFt1PRvxjtWkMk9OamPlJY20jJKWm5Je1uSypzMVTZjfbeJfN5joClBJW3ZhKa+OhroIfBRc12CUGkTSOmz8o8+U98oPUthODLwI+OWtoSmvfCVcTl7LdNOfZryPWWco7XpHWkQTNmlIfOE+zSHH4AhpVjSVIKtO7di/vwFeFn0Ei3Uj9hhEBsDh0VfhM8iX5wMPAk6eTGj8BnWblyLLdv8xZptWv9NJ1BeCL+A11X50P1sFRPGacVQ6rMURMffQEFtgVCktJKHDjmLuBWJvUf24vA/h5GcmYxKYxWiEqPFem5SvmpjlTgR8s7929C+04hmOfWxXo29groPDUjJSsWJwOM4ePQAIu5cR3lLpWKF0vDvO5EAm4y4PBaaSnjQ1ByaXkRTfGi0nKbP0DQaar7T4A4Zan4TWGlknJrh5JfmPspRY0fVpTJeipPANh6Gpk25ckURqWh6ZzIUNhmZbgKqq+CszJ+hrt2xT5Og+bsVmvnl+Wg108CPZTnilZuX4bvIRxxWVtVagczCzEHQbPneLE6apI2CUzKSQTsgiSWIHbSB8Un4b/cXSw8JIKXNpTgacAx0jAadD7TGbxWWLFuETf6bxFEVqVn3BagLagtx6MRhAcWK5nLQJhhF9UVYvGwpdu7egcXLF4kTKH0X+8DXdyHOhAajsrmC+zzFCifqxqClrUZktWchSBOEAM1pxDTeRE9fD6S8+s9waoem8SQnJyM8PBwRERHC5OTkiH69iaxMQ1Wy4dwJdhJ4pBYJoAQbAhrBgOZmKm26R35k36UMW4YhPztiU95QnONhKGxX571MJ727NOTm6nhGyjt3hubcufPEQWr51fkoUBfi6Zun+GP3NsyeMxtnr54Vo9mZhVmDofmtGXGP4sW+mynpKWj60iSgSadG/vXPMazfuB4Pcx6KNeC5xXlYunwJlixfhqyCLHHuEJ1BTmf+zJg1A8kZKWj90Yo3mrfYe2gfdu3bLXZvp41EVHUqcYrkQt95uJN8WxwEl/kmGxs3bcDSFUvw8Pkju8s4J0PtTWacrDSLLP1q9iq+dBsNEEeq+ON9X6ZZvoMr4qMwKTwZtivCHE0Y7gzNmTNmYe26NVjvvx6btmzGmvWrMXe+NzZt3Yz01xniKNvMgn9D896jewKayenJYns32hmo9acetGGv3yY/PMwjaJpAZ6ovXDgXuw7uFdOYaDu45i/NYs/L2V6zkfQsGS0/CZpvsPfQXuzctwNlTWWiaU/Q9Pb2wuYd/tCYaqA368X0p8MnjoiNi2/fvyOmQE0msKZC3AxNKzRHU3n5mdEN5Iw139wZmrNnzcHuvbtw6MQhHDl+BMdOHcX5iHPIeJ0hpiXRIM2zApvm+bdm3BNKc444O6jxW5PYuILOSj/6z1Gs2+SHR7mPxC5EtIGvr89CHDn1l2X7uV/U/9iGP//+U4AvKSPJAk3tW7G7+659O1HaWCaa3UV1ReJkyd1/7hF7eVp2LjLi76DjmDPXC3Qeu76DpkVxn6ZHN8/HWoH5+YkHpztDk5rnD57dR0FdIVS1RShqUIlzymlnHwmjZ7Z9mtQ8T0vAzFmzxCmVDd8aYfxlhJ6U5j9HsX7jOqQRNLtMSH+VgQULFmD3wb2gAR+9WQfdTwP2HNqD2V6zkCyhqSkQ0Ny9bxdKm8rFVm8SmnsENJtBJ0vSOUYCmvO8EZtyS6hXmU5PtVlpstIc1QTzyfyxcGdo0uj5q/J8y07l1rPMbedh2g4EtX5vwf2sB5g1exYu3rgI7YdaMZ+zvLkcu/fvAm3U+ygvTShLOlto0dLFWL5yBVIzU5FdkIWY5FtYsWoFZsykPk2r0mRo9v9IOQt/hiZDk6E5zs1NOeWof/S8LB+6TtqFvV1U3EFry81GZNo0zw10no62UMzxXLd5HeIeJyDt+ROcvXIWK1auEIeyPch9JAaHSptKcTz4JBYv9cXqtauxbftW+G1ej4W+PgxNF33PDE2GJkPTRZVpKMVC0CxrKcOew7uxctVKvKG5lmJndNoQmHZQt+yiLp43G5FTnIutO3/HzgO7oDFpxfSWlm/NOHLsMBYt9cVvfquwdvM6cfrklq1bsHPfLjx5+VQM5jR/a8LL8nycPncKBw4fwMG/9yMqPhpb/7cVs+dQ89wyEFRYqxJN+0N/HUKZdSpRSWMJlv+2TByjS+vfRXo6jQgKC8aSlUtxLy2Om+c85Wji++Mms1k7XeJ2t+Y5wYc26Lh9/zauRF9Bta5KzIu0QPbfOxuVNJXiRmIUYlJuoeFjA/RdlpMkq3XVuHrzCo6ePCLWr+cW5Yk5nQmPE6CqKRLzBmly/K0HtxGTHCsON2v41iAORNu+b4cYzHmQ/RCtHTpUGasR/zge9x7FoeZdnQAubSQSdiNMwJFOz9R30xEWRtE1cOFGGHLL8oRCtqTbcweDWGmy0mSlOc5KkyAj+i3NdFSDCcZOy5k/Aj52NskQytM6CEPHTNBnWjNOpz/ShPi2rnbLiiCCWrcFurREkpr5+Zq32Py/LVi4cD7OR5zH4+ePEXnrGhYvX4zV61fjRekL0R8qNgExm0R65ImZIj3kRmHJHZEozk7LGUHiwLcJyKupDmWGJkOToTnOIJBQIhCReqPPbb/ahE2gG9SnKT5bYEj++gHSaTldkp4jN8splaT2yM/A+T1NX5uR/uIpVq1ZCR8fH9EP6rNwIZYtW4LUjBQ0fW6y9qPSKZCW7gERnhWShl8EZr0lbXRAG51L1G2C2AXJbF0JM8751f/OUzQehiZDk6E5jpWTgEgK0WRuE2d1C0gKMFkUot6qEG1BQWpPwpbuKdWf2PvSeoQuXQslan0H2qmIphpp3tWAlkxGJ95EQnoiynUV0HVY4rSoSLq2Kl7rOesCojRAZT2nnWyaRE9Tj9qsR+baAt423Z7wmaHJ0GRojiM0JwsiAtYEUOqb7NRbugem4XtORv4yNBmaDE2GyUA3AOfFiHnB0GRoMjQZFCOCYjIU3VSNk6HJ0GRoMjQZmk6UAYYmQ5Oh6USFmarqh9M1cfNG/w3NQASoT+NW4038ov00+yybmU/b/TSny4RvT3oPd5zczlCbOKiNd17/G5pBCNQE4GaTBZo91mNwGJqsSKeMImVoTh8AjTfgxiN8e9A8pQlAdGM0enrN6PnVK054YGgyNBma3Iznvk97a8/VQQgsD8KNshuoa6pFWWkpcnNzwdBkaDI0GZoeCU05ob/fph3tv7eg9l0NHmvScD7vHMKehOJq8hXcjY/DtYhIceQPQ5OhydBkaHokNGlVlK5Dj4ZPDdC0aVHeVI5XpflIy05DbGIswm9c7T8bTZ6RRjZDk6HJ0GRoeiQ0mz43oqS+BJn5mUh6mISom1GIDI/EtYhriIy4hnDrYZJKYDI0GZhTBpg0S4AHgnggaDwGeOyFSev031S8QcLDBMTejcXNmBhcv3EdkRERApwWUA6cwqsEJytNBueUASdDk6FpD3Dj5UZ9mW1dbah/34CC6gKk56bjTvxdREVH4dq1a4i4Zjm2PCJiMDwZmgxNhiY3zz2yeW4LY5pypOtsRY1BiyevHuFy4kVcir6ESzfCcDWSwGmBJ0OTocnQZGgyNEl10j6jXbTHqA7PTE9xpiIIZ0pCEPk2Aq/ynyMp6b5QoAxNhiZDk6HJ0KQy0K1Dm3XX+6z2TARpAnFaE4Coumj8NH/Fl+8/8OHjRx4996RlilP9XblPk/s0bZvME/tZB2OnDsYuPbLfZyFYHYwAdSBiGqLR2WdGXw/Q19fH0JzqIPGk9DE0GZoTC0nb/NbBSEd/mA3Ibs9CkCYIAeoAxIgNO36hrw/ij5vn3Dzn5jk3z7l5bm8ZJUFTc1pAs4d2ObIwk5WmJym5qf6urDRtlQ9/nkjlaW/DDoYmq8opoyrtAZyhyZCcSEjaxsXQZEBOaUAyNBmQttCa7M8MTYYmQ5P7Krmv0okywNBkaDI0nagwk61yOP7JV94MTYYmQ5OhyUrTiTLA0GRoMjSdqDCs9CZf6U32d8DQZGgyNBmarDSdKAMMTYYmQ9OJCjPZKofjn3yly9BkaDI0GZqsNJ0oAwxNhiZD04kKw0pv8pXeZH8HDE2GJkOToclK04kywNBkaDI0nagwk61yOP7JV7oMTYYmQ5OhyUrTiTLA0GRoMjSdqDCs9CZf6U32d+AyaCYlJQ06MD0nJwcqlcrtKqS9DSLYrWhKfY+8yxGDazLBydBkpTmlgOjIDxRDk6E5LaCZnJwslGZkZCTCw8NBSrOwsNDtKqQjlZb9TK7yZGgyNN0emp8/f8b9+/dBwIyIsBycnpWVxdBkFTsuP5oMTYam20Pz27dvePr0aT8wCZ6PHz9GQUGBqDTctzm5ymy6KWOCZkJFPILUwQhUB+JW8220dtHpgEYYxBkuDJXJhMp0j3ugT9OArPYsBGoCEaCxHKzm8BlBP3/+xOvXrwcpzcTEROFGFZahydB0JbhLVSVILI9HkCZAnAIY2xKLVrMOxm4j2s3tMHQbeAoNzwgYtzLQ1mWCoVsPQ5flNMoAbaD48Y5tvIleOr/XkYPVfv36hcbGxv4+TWqiX79+HS9evOAmOjfRx6GJrkJceRwCNQHCxLbEQGfWo62zHW1d7dCbGZrTXe1N7vuZYOiyQDOrPRtB2mAE1QTiVmOMgGav9TzKYY/wJbB+/foVd+7cGdREp37Ot2/fjkOlYeXmSuXmbmGpioqQWJ6MYHWwODo1ujkaDV31MHWSyrQ00Se3UnH3wHTOf/pR1ncZ0NTZjEfGNASpAxGsDUJCcxyIlz3oFVpzRGh2dHQMaqLTCPqNGzeQkZHBapPVpmt/OFWlSC17hLPqcwKakQ2RKPteApO5HboePYzm9nFrmk1nGPC7OfZjp+8ygkzZ5wrENN5CsCYAF+ouIPtjJoiXDivNnp4efPz4EbGxsaJvk6BJA0IxMTGwN5JeXFzs2orEYPKY/CxWFeNZaSauVF3BaXUAzmtD8VD/QPRpmroMMFCfEw0ImclwU51h6BgMh8on6iM3mU3CkB9ZvrLfZeG89rxQmpFN4WIwkqDZ19vnmNIkX93d3aioqBD9mXLqEdkEThpNp8Eid2sKcnqnYFeISoU3xW8QV34PQZrTCNQE4UrDVRR/KYbJ/B5Gswn6Lovh0fSxAWMokHiUu9kEYzf9EFt+gNu6jCj/XIboxigEqU8jRB2CpJZkdPZ2WJvnDkKzr68Pvb29+PHjB54/fy6a5hKcpDijo6MRHx+P9PR0MUDEfZ1TEEZuotapT5PM09KnuFx1CUHVQQjRnkFUcxTKPpeJppOp0wBDpxF6s0V1elQl55Fzl3bPkLI0dplgImNuQ9XXStzV3UVIzVkxeyOiIRzVn6vQ10cys8/xPk2CpgQnTXanFUEESglOsq9duybc7t69i4SEBNAqopSUFDacB06VgdTUVKSkpiD+fhzCsyIQXBGMgOpAhGhCcLMpGjnvc6H5oREj6qQ6SW0yNDkPRlsGqPzQD3Dtz1q8fP8Ct5tu41wN9acHIqw2DJntz/Dj13fiJfqs/6jlPeJAEAFT+ffhwwfRHKcRdYKlEp7Ka1KhbDgPnC8DEYiMjEB4bDjOPzuPwLIgMVcuSBuES7WXcKf1HtLaHiPnXS6ev3/OhvNg1GUg710O0k1PEa+Lx5W6KwjWBAmFGVobijRjGkydJoFK4h9BU/6NCE3pUWnTSiHq40xLS+sfIFICk68tS045H8aWD1dvXkVoxnkEl1jAeZrmb6otypMK9sXai8KE1V0EG84Dp8pA7UWhJs9oQhBEsNQEIlATjMsNl/Gs7RlMHUb09A5MaFfyz2loUv8mGZr43t7eLgaAqD+TVgrdvn0bUVFRYsCIJsGTEpU2XbPhPHCqDFy/hvCYcFx6eBkX8sMQXB6M4KoQ6zLLoP7llrTcjQ3ngdNlQB0ifoQJnJfrLuNuSzwKPxbic9dHwTjbVrYE56igSdOQCJwUKF2T8mxpaUFZWRlevXol+j1pOpI0mZmZkEa6SdvWXfmZrsmfPVvpT/qRbrb+lXEpr5X+7D0r3eQz0rb3nL170o3soZ6RcSht2+fkPVt3Ga69sOUzyntK/9JdutmGbXtfhif9yc/S31CfpX+lLZ8hN9trZTh0/SwrC8+yniHz+TM8HR1ZOAAAArNJREFUqnyApPpk3GuOQ0xTLGKaYyw2XTfRtb3Ptu7kVxp5Tz4nPyvDU7opn1NeSz8yHHnPNpyh3O09L8OStnxW6df23lDxyWfkfRnWcLbtM7ZxyftKd1s3+VnGY/vZ1l3eJ5vuDWUrnxvuWj6v9CPjsJSfWy138FD3CEUfC/HObEJXbxd6afC7rxd9vZbJ7BKW0nYamgRKpZEB2bOV/vh6cL5xfvw7P5RliPLH0gNPfUk9NElOjGJSge7o7cBn80d86PyAD+YP+NhF5r0do7yn9CPdHbXtha10sxcO3bfnTm7KZ5X+bN2V94YLy/aevXCkm238ts8681mGqbSVzw/lPpQf8q+8J69lOPKzrS3vD/W89K/09x4fuj6go6cDvb09oqj19FkmsFP/pQCnoh9TWTadhqbyYb7mHOAc4BzwtBxgaHraN87vyznAOTCmHGBojin7+GHOAc4BT8sBhqanfeP8vpwDnANjyoH/jHVAQhm7bVjynq37aD4rw5LXZFNY8m804do+I8O0F64r41HGK8O1jVvpx1XXyriU8bkqfApHhivjUrq5Mh5lWDJOpdt4Xo9XfDLPpD3e7zDe8cjwlfZ4vJMyfLoejzgoTPpzidK0l0D5EjIi+Xm0tgzHNi4ZnrwvP4/WVoYj41KGpbyvdHf2WoZjG4fS3dkwh/Iv45BhS3/SXX4eq20bvgzP1fHIcJW2jGOoNCj9juZaGa6MazThjPSMMmzl9UjPjea+fKfxjGc8w1a+s3wXcpPXMm5pK/2P9prCGldoujqxFJ7MFGXYyuvRZoZ8TsahjEdeK23pfyy2TLe0ZVi2n6X7aG35TtJWhmPPTXl/NNfKMOW1tEcT3kjPUNhKM5L/sd4f73cZa/oceV75DsprR551xs94hq1MB8VjL66h3JXPOnNN4f1/Tf8G1Qn/5fUAAAAASUVORK5CYII=;" vertex="1" parent="WIyWlLk6GJQsqaUBKTNV-1">
          <mxGeometry x="81" y="40" width="333" height="229" as="geometry" />
        </mxCell>
        <mxCell id="bjYGnmnEsGefj7SVSaNM-14" value="" style="shape=image;verticalLabelPosition=bottom;labelBackgroundColor=#ffffff;verticalAlign=top;aspect=fixed;imageAspect=0;image=data:image/png,iVBORw0KGgoAAAANSUhEUgAAAKsAAABdCAYAAADaI5YdAAAgAElEQVR4Ae1dh1tTydf+/rWfK713sWBXrGDBtq4NBRIQBUEIRYHQFBQboIIFEFB6Dy2kJ6BYEIFQ3+855+ZiRCy7a8E1+Iy3T33nzJnT8n+w/dl64Bfpgf/7Reppq6atB2ADqw0Ev0wPMFjnAFCi//nf3BzmLIkezM4Bc5Qsb4hntqPYc7bj38HC3NysgKe5OczyuQV3jL55MH40iazA+h6os3NzmJmdxfTsDKZmJvB88gU0Yxr0jvRCMdKN7pFuKEYUULz9TPoRz79Uxufq93efiWWJx099/6Xn9N2X3hGfi8dPlfUt71NZXyrvXz0XMNP9thsDo0oMjg9ibHoM07PTDFjCHBHI2dlZvv4IqYCFDRBftBwJqO+mxqF6p0HD8DPcMt6CXC1HSn8qkvqTrVISkvptydYHX8LAe8wk9yfjkvISCvWFqHpehf63fXgz9UYA7YwA1pm5mcWwKoBVXPLpODU7hVcTr1D/shEZAxmQdksR1SVBpEKCCIUEkV2RkHCS8H16Zku2PvgcBiK7oiAmxlJHJKIUkZB2REGmTMaD5+UwjGkxMW3GDPGcFqZ0IWIFNoAo6uwcpmemMTQxhAeGB4jtPoeIrihEKaIQ3XsW8T3xSOxLxMX+JFzsSxKO/Rdx8T+RqD2/aluWft0T+xPxQeq7gLM9MYgi4qeQIKpTglzVFfSPKmGengAwK3CvhFurPwvPSmCdxfDES5QY7yJScZpBKu2SIr4nDld1BXj8ogJNI81of9uB9lFKnejg1IWO0W+RKD/rfL50bf3uYucLv1/sHfHewncXXovvfer4d9+3zufvfrvw/YXX1nkvPP8779K3C9//0vXC8sQ86LtOtL+l1IFnr57iluEGZP3JiOmOgVQhhUQhQbY6B+pRjbBfmpvlnT3BlndjIs9Ky//ozDtUDT+BVBGNqC4pJF1SZKgz0T5aD+O4CYYpI4yTJhjNJhgmDTCYjTDQuS3Z+uAzGGDMTA7CyImwY4JhwgDTxHMoxrpxTXcNcb3nEa2IZsBe1V7ByNQoCKu05Z/G9DxXIFDWWaDrpQIXuy8ioisCku4YZKvlUE6qYRofhG5mCCYzpUGYuFAjjGYDTLZk64OvxcCkEab5ZIJ+Ug+9hegV64pBq/gZxRnE9sSi3FiOWRBaBbiKnACDdWzuHcqel0HCPGokkpUp6Bhvx9A7A/QzgxieECipftIISoYpmiFEWW3J1gdfiQHCy6SwOpumhBWaqC6t0v1mJQoMBZB2SiDtjIZcn4URvCHWFURiRdkAg3Xg3QAy1Bm804/rOY87uhJGvtFMmQszgo62ZOuD74EBYiVrhmuR0EcrexQS+uPR8Lpe0EbNADOMWouctWm4Eee7z/OmKl2Zho6xLhswbZPzh2HAYB5E73gvCo1XEaWQQqqIwS3NTVYQEFnlTZa4wap+UQNpN22sopCtlEM7of9hFf0eM9WW56+1AugnTdBOanB3qAQS2mh1RyNPncMaLWZdLUwrswGkSZAoBOF/7kA2DOO0e/u1Gmyr7687XrTR0pl1KBsqY4kAYVGuzRQkVsS3fgDWoUpEd0ZD0ilhtareRlltk/UHEisG66Qe94fKIemiTZYU2Vo5ZmfJXkBgAkg/IFBWK7BmaeTQmrW2wfqBg/W7rwoEVu2kDveHyhDVKYW0Q4octVwwbJmbEqz95uZsYP3dgbIU2r8YWLNVcpazzsxNsRnAm5E3NrAuhcH63evwEVjbpcjqycTLF8NQ6wbQ0d2JiooKG1h/d6D8tPaz+l7YFNIeSTWqQqn6LqLrYhBbFYuk8ou4e/sucnKykJR8ETKZzAbWnzZYvzFPbDAb2NZEPaqGclgJhb4LtS21yL97BQnyBMhSkpEsS4ZMloyUFBkfbWD9jQHzMyepzmyAblyHZ4pnuFl2E/KcbKReSkVyqgwpSalIT0plwCalJiI5JRmpSWk2yvozB+x3Lpt4VG7/uAk9xj48aanGjbu3kJEtx8W0ZCSlXkRacjpSZWmQpcgsVNbGBthEdD9jdZkQwEqGLXqzCaaJITazLDOUI7Y6FudLY3Hx6kWkpacjlahsapKNsv7O1G0ptZ0sr3SsFCiDpEOK6DYp5H1ZGBl5i76+bpYEXLmSb9tgLaVB+13rslB0FU1KAZWgwZqansDY2BhGR0dtYP1dAbKU2v0RWDulyFVnW6JUTM/HsLCpW38Gz2Yr84O9wkKwiupW0bGF3K7o76eClS3GyWp8iqzNLTtE9kAgzwSDxQ3CxEf2TOBBfv/ej6YOVF/regoW7wb2KWLZIckPLYnqxs9/eWAa2Jqf2/Od2rIQrMwGqOXzlPWTVlc/3JDFbMTg9BB049Qp5O5A/l0EXvLR0VsAa2BHRaP555suMmBpN2s2MXVgcFquTVR/qwG1Brb1/V/qnMfjw3Z96/ovBtbcpQZW3YQeiqEe3Ku9j7xb+ci+kYOrdwtQ0VKFgdcqwbXGMvj1fY0oeXIPTarmDwDxrTvuc/kJlNSE4upS3Ci/CcWgguvSMNCI2xV3UNNRC+OE4GvEQLW4BX0uz6X8jPzLGvobcevRbdR01Vp8qL693eySBysNZou2FXFpF7ApeDP8V/jDL9AHfiv9sGtfCHJu5EIx1C0sq5NGXL5yGTtCd+BqaeFPBat+zIidB3ZhVdBKVLZWMguTX5KP9cHrESeLh2HMCNLQ6Nnr8+evBP9mMhjGDci+LsfaTUFIyEyEkVg2q5XjW50vebD2vOhFSrYMLq7OWLt+Lf48eRTh0lMIPbAHrm5u8Pb3RsmTUujG9exNe620EKcl4Sh9UirELyBDCNEYYor4WoG3NZJ2xMJKLOxMwbuSHCCJT6aOF/lfcRDEayvqMc9LGwQedNyEwKBA2P+xHOX15Tx4dypu48+TR5BdmA3jxCADlcBqnLDkK7I27OFJZYjlWLyEySXZck+sI7VtIVshtuc9/y6wTOJ94SjmLXqTCvmQGzQ9n8+fHUHFPvj4G3533ICUzGQ4uzoh4nzEfB0/LM+qr/4hkJcmWHnQqGNMeNxcgU3Bm+Dn74v823ns9zVoNqD3ZR8OHD0Adw93pOdnoP+Vio0eFIM9qO9tQPfzbiF2wZQJ+nE9GpVNqOmswdPOWrSqW9D/qh8tmlb0PO9h0GpGteg0dqFV24b+V0rU99Wjpr0Gtd3P0GnqZB01xUIgSk/WPz0vevCs5xmq2p7gSfsTNPTV83cGs44He3DShFVrV2P58uUorytnACuGFHjaXYcOfSfXTT+hQ99wHxqVzTBQHfsaUd36BNXt1WjRtED9Vm2ZXFSuEb2v+rhMel7T+RTthnao32nQ2N8EzTvNotSMQKd5q0GruhXVXbWoaqtCdWcN2nSt3C8EdJowxKq0adrQPahAu64dNZ213K4mZSN073QwTOh5f0BxIAbeqLg/n3TU8HstqhZcSI2Hi6sjIs9HQj/1HtTfErBLE6y88xeoTVldGVYEBWB10Go8rn+M3jf90E/qYJweRHFlKQ4fP4xLVzLQaVLwgGYUZmJ3WAgK7xUyeDVv1XjS+gQ79+2Er583AteswMETh1BQeg2Hw4+g8N413qW36dt4CTsWcRxXb13Ftt3B8PX3gX+gP2KSYtE92Mf508B2GbqQlJGMDVs3wCfAF36BvtgRug0FdwphtKgIrcF6/+l9BlLB/UJsDdmGxMtJvPFSvRlA0f0i7NizC4/rK7Fz/y6sCPRHgK8v/jp1FM+660D8OgGk73kv8m7kYlPwRnj7+2DDlg2IPBeJe5X3sWn3FrTo2j4C6+CUCboxPapaq3Hk+BGsWBUA3xV+WBHohxMRx9DU3wLtO/L2GERmURYOHT+ElKxUnI4Ox9oNa/jdnft24371fSE6Cq1QEwaUVJUidH8IAgL9sTJoFY6cOIKwQ/vh7OKEyNgIAdT/kHp+DtxLEqxi2CGqeKuuFZL4SDg5OWDFSj+kZqegXdnCVIZiwRrHBA9bvdkIk9mExPRErAhcgayrmUwx2jVt8F/jDzs7e2zfsxMno8OxbvM6eHi4wdHJARkFGUxhmlVNOCU9BTsHB/gG+mLPgVCES07BzcMVDs6OuFt5D5pRDQZnhpCYcRHu3u5MOY+fPs4U3s3TjcvtMnR/RFnLnpUxRU7LT4Obhzsio6MwODmEgdcDyL2eCwc7B/j4eGFLyFYcl5zEynVr4OTizBOi90UfswOF9wrg5eMBLx9P7D2yHydOH4NvoA9cnZxhZ2eHJmXTR2Cl/mtWteCkNBzuHq7Yvns7ImMiEBy8Ccvtl+HY6ePoNHZyvyVcSoCnlwecXV2wdstaHDv9F0L374GjszNWrl2JwQmiwHqoR7VYuWEVHJ0csStkJ46eOoq1m9fC0dkRzi7OiCQ2YOr7eD0vTbCaDSDKZJoehHHahIb+Bhw+eQSOjo5Ybu8Aewd7HPwzDEUPitD/ohc6igRDvBWBNS0BgSsDIC/MwuDkIBp7GrDc0Q4ebp5QvhzgSDGqVxqEHgjFH8uXMVhpiW0aaGJw+gX441L+JaYgRNXK6x7C3c0VJ84cR4ueqJcJSZnJCA4JRt6dfJ4Qfa/6IS+Qw8fTC+lXLi8KVuI/LxWkw83THRHRkRxiqf+NErlFOXB2csLxiOMMBBLL0dJLlHPLjs143PAIhgkjUvNS4eBghyMnDsMwMwTjpA6t6nYst7eHg6MDGpSNH4GVouKU1z/Err07cTLyJDSjemjHNNCPGODi6QonewfU9dTxdxcuX4CHlweOHDuChr4m7s+G3nrs2rMTfgEBvJpozTpmiwJXBWLfkTDUddcz1ScW66/Tx+BClPV8JLSTvxFYiSIQWOnImwSzgXnMRw0PcUoazrPfzm45z+79h8NQ0/sUOsuG6WJaAlO4TAarEY3d9XBycsKW4M0s5hI2DkM4eOIg/nD8A5cLMnh5b1a3cN6bgzejVdnCoDYR7zxmhLevN0L2h6Be1ci8J9lYEsW//+weisqvofDuVVxIiYe7hycSUhM/AivxrNSW9CtpcPVwxenoSFDABuWrfpZmeHh5o6y6HDozLfmDHNtpe8h2rFi9AsXVJaBVI0WeCjcPN8TKYoUNo9mE3uE+LHNYBgcnRzQOfExZib/WjWmhfN2Puv4G3Ky4jcL713C1pACObk6wt3dkHp4mUtylBAZrQsoFmCYE6YRisJsnpp+/H6rbarl+pTV34Rvgh7Tcy+h52SfIuscMXD8XNxdEnae2/UY8KzeWgEJBDd7pMfByAMrXKmjHdeh7qYTC2I30q5fgu8IXrq6uSM5MZjks7e5FsGYUZEI/rkOd4hlTnm3bg3kZN9ISZTbh8MlDWO64nMFK34lgJVC3qdrmwfrcPARff1/s3r+bwUrxu/KKr2D91o3w9PLi5OPvA08vT7h7eiI+7cJXgVW/AKwPax+9B+uUETv27ETAqgAUVxczWFOzU+Hu6Y6YpBgYpoU4Yso3A/if/f+w3MEOjcoGLpcmhZgMUwY0DjQg6lwEvHy84OnpBR8fH3j7esHOYTkcHOzxtKuW2QwRrImpCcyikJShlyUxqfD28UZN21PeOBFYffx8cDk/Ez3DvTzRSRKTJJfB2dWZy+JJblUPsT7/9rgk2QBuFM9OE+5UFWP1plU4evooDKN6GCZ0vPSoRlS85Pt6++HQ0UN4RsuZFVgzC+UYnB5EfW8d7Bzs4eHhgYFXA7yTJ8CHHgrFMgeBsn4JrCSJ2L2PwNqAFnUb9h89gI3bNiHrehae9jxFU38Trt+5xpT1QlrCNwHrTgLragGstBqk5aXD3tEeR0//xZIEw7gJbapWLLNfBntHBzQvQllJJHa1uICX/C0hwahsqUKjqgkNvY1wdHWEnZ3DR5SVwWrRADJYc1Lh5eONJ601PEkIrH4r/JGefQndz3sEsE4YkSxPYdGV5HejrKQB4jRpQumTu/AJ8IFvgC9yb+Wh7yXtyg0smjp4/ACcnV0QeTaSRU4fgLVAzmrZVk0rAlev5CXvwJEwxCaexa6wXbzB+sPu74K1EQ8bH2Hrrm3YfygMtV3C0tip7+J83dzdkZD+dWzAlyjrQrBeKSmAm5c7vHy9cTzyBKRxUqzfsg729vY8GRsX4Vlp504bTdr8HD1zlCcq7f4rmipg72wPBztiA55+TFnNQ8xqiGAlNqiqpZrZEwJ64KqV2HMwFE+7a5mfrul6hgNHD8HFxRWSc5Gc37+loot9/9WUlSxaKn9QkAsBrIKQusvUhfj0eBA/tGrNKgbJkRN/8m6dNgQevp4ovHsNqhE1i2AS0xIRGBiIjIJsXj6JAt95eBvbdm9D4KoABG1Yi70H92HF6gAssxd5VgNa1K0Il5zGluAtaFcJYiASkA+Zn8Pf3w8he3ejfqCRZaT7Du8DbcTCDofhVNRJ7D2wl0U4tHlKTL3Ig0V8X2DQStiRUoB4VrMB6VfS4eruhjPRkcybKl/TBiuXl+eHNQ+hm9CxuI1YjZ17dglsQJXAs7br2yHLlmFj8EYErFqBLVs3Y++RvcwG2P1hz5vQjwbYbEDe7Tw4ujoxH39achrHwo9h07aNcKLdu70T+zeRrDU+/QI8PT2QmJKIQQLrpJFlySm5afDx9UN1aw2DXfVGjXWbguDu4cbtpo0n8deePl68l4g6H/XzeVYCa9UPAqvY6YIIy4A2bRtSslN4KV69bg38V63Amo1rEPZnGHKKckCAJmpLIRFzb+bi0LGDuPnoNne4+p0KJKtNy7uMorIi3Hh0k+Wuu8N2Y5ndMlwuuMxAIhFOcpaMxVfdJgVIRkmUiQIj7z+yH1FxUWgztLPckvT9ew/vw/ot67Fl1xaciDyBy1cycODkIeTfviLwjBODLMfdvmsbajqquYyiB9cRcjAUqdlpME0YoRxR4vbj2zx5amiZJYUD76RNrAmileNxSwUvtR3GDtx6dBOZVzNw48FNlFSWoLKtEv9zWIbly+yZRZnX1Fnxi82qZsSlxWPzji1Yv2UDduzdgfMpcUjPSUdoWAiaB5o5/9w7OdhzaA/ybuZjaFIAK00mssHYd2Q/6nvrBRBOGLkfqe9ZYrF9M05JTkKWlcIsSlp+Ok84cQy/5fFvUdYfCVZRrSg2tv91PyqaH6Oo7AZTUgIdLcOat1qBGlmiI7fr2lhL027o4A0agTDseBhC9oaitOou6pUNqGyuxNYdwXB2c0b+nTzWzqjfqlh8VdNVA82omsHFAn6zEY9bKtlAQ/WWtGQmKF8NoLqjBrce30JJdQloCe6ne121aNO1M1hJHPak4wlIgtHLvJ0epHgg8BFAiNJqJ7ToGlSgsrUK/S8HBLCyEsDES2xVayXzhfoJA4hXDDkUgpNRJ/G4uRINygaUPikBsTLunh5o0n4sDSBVMdWjy6RgI6AbD2/xxCXtm/L1ACpaq0CApD5u0TTjcfNjtGvbWQRI90jq0WHoQEVLJZRvlAJBmDDyhCUN152KOyitKgFNCNIEktaPRGhCqP73Gz1xDP/t8W+B9UexAYs1ShA5Cfp8IRS8JQQ8a7s+7BiBypKTmbCjjU2O5SUueOc2HA3/C6EH9sI/wB8Hjx1kFaz4PvG8IjUnlSrfZ7tZIWozSScIAMSm8LlFl0/ngohNqJOQ33vxDcXGp3uUP7eNnN9YNCfy5oJNK70jlCuI7QjQYr5V7U+w/+h+lkyQAc/R8D+xbec2uLi64JzsHKufF+03M/UDlU9yaEEkxasGRyW3sru12NdyPa0oM+VJdaA2W7eLQ6mzrQW1yWBRsVp+S+Jnq1sNBgPu991HTNtZjuAmV2dDOykEZhOA9CFgFuu4f3qPOlocaC7LbOJler7zRBCQcbZohMHf0CDpedbHppzDgaMHsWvvLjaCORMTgeq2aujGdPwNg28edCLQLEdL/vPtZEmF+I7Qbh5kAgQrKCzgFAddBKolXD2Vxb+5YLF1FQ1WKA8BrBYjcyuwat5pUdVahcizEdgTtgc79+zA/sMHEJMYw/JW7iOxPMuR7s3fF/uQDV+Mlv57Xw5PDG7X+3EU+5eNbXjSLmiXaCQkTnIql37kYt4A531e/3Tsrb/7aspaUFAA+e0cxJdfQGztWWS356D/dR9bOxEFE6jSt62cdUW/xXmHsRN1Pc9AhhfqkcUNP75FOd8jDxE4ZOtA9SfNE226iGoL5YnHpT0G/6ZvvhqsFJYlOSUVKbI0JKcl49K1S3hYfQ/NAy1QvVYxD2b4Tmq2f9PAj761uMF8dH8BVVqqz5m6T5F5ocByLNV6fo96/T2wypIYqLL0JMgupUKenYuiO9fwtP0p22dqLTr671HRb5WnyCZ8ygb0W5XzvfKh+pNBCQ0csx7z/OR/l6KKffnVYE2nqBeX0pCYfRHxN+KRU5eH3hdklkeMt8B8M+O+hCkUGboIPJxJ2PFaeFGxM36FI9mVGs2CbSnZjb7no39tb4Ov6fuvBmtzczNudt1EdHs0ojqjkKnJ+m6Rr0X+jK30yXjaQkUEZcEnGHjeTFisr+Z37F+gNvyNXtgtM4X6Cr6P3VAsG4kJI/SWNDhFYBEmA9WfJQa8A/9CHZbw5P4aAP3Id74arNPT06gYrODfFIjqiEKWJgv67xymnUFLgvnJQfZsnRcbze+i3wOBAWKxaRUkB18GnkCViMoOsUaJ8vhi57MYSgA4i4TmpQ9k1kjiISMbTNOzwSkSrlvEUDZQfrlvv9BHXw1WVrc+r0R0Vwz/AEaWOuu7WYQTYESg1nTUgMROZMlO4hV+JvosWTXONDWIsmflOC87hxsPi76qbgSoe3X3IbkgxZXiK0xhvwRWEi1Rp3E9xg142vkMcSkXWPtDdqPHwv9C7p18aMnohmSctCpY1fNL+duevydAC/viq8FKAQQqGazEBkiQpc3mn3lZmOG3uhaE80bcKLsBDz8PhITtgmFMkEMuVgYJvBPSEuHp7YGzSTHzwF7sXfEeyWDlN7OxcvVKSM9LoR//MmUVAUjyxFsPbmHtprVsHujh6QEvb2+4urnCx98Pe//cC4VRYQHrl/MV62Q7fiOwVhFYLT8t9L2DXDBlNRtw88FNOLg4YOPWjdC80cAwLejrWbBOGybSlpiN/Cw8Khxevl5IzU8V+Eei0BbvTxL18AaLFAe0MWEBvAGZ1zLZQ/b02TPscUDU1jQheMBy8AzWVgkdKGiuBKpf11uPwycOwcvbk6387z8rx8OmR8i/nQ9XT3KZccSD2ocYeKdmCyamrqzxsfwe6YQgemLKa1EGUP7k7qKf0s9rhERWhdkJC7/MslWzidWhxqlBmFgZMiioOcnviig5vcsrFJ1bAEB9MO/dS16/guaNJojo1bqUJ8vfoqw/zjbgPZ/3sOEh1m4Mwqqg1XjSWg39NEVfGUJWUTYyrmWyqSANZG1nLUL2hWLb7u14QK7PZiN7YZbXPUB8ajxOSk9BGi/BlZKr6CO/JtYOGZB1PRPeft44fOJPlFSW4uzFWETERiAtLw2tasGNZSEvS9clVcVsyLFp62aUPX3ALASBm9xs4lPj4OnjAVlmMnpf9DDLQEqIB/WPQL5ONDGiE6Jx7e419AzRc0Htqh3VQX49B23adjZWkSZG41HzI5TXP0BytgzkeEiUnSfaOHlPDOBipgzldWVQjWpYG/eQ2pt+AafPnkZMQjSuFl9Fq0ZoBwFR+UaFizlJ0L7Soaj8BqITowXXFhHQS5hlWZJgtQYH2aOSx6SXlyeSMpJgnBFEZWSp778ygA1KCJi5t3IRuDoQx04fQ89gNwbeDKCkshjBu7bBNzAAm7Zs5IATa9atwbnkc+jQk8EJUdYMdlvxDwzA9tDt2LhlI4LWB8E30A9HT/4F3VtyQxb5TppEwkQi45OQsFAOuhEni8OznnpoxrSsLm3Xd+BqaQEeNT0GmShS/a7cuYqtu4KxMmgl1m1aC7IeC9q4BnGyc0JIpCkjBoZVWL9lIzvhbdm5Fas3rOaVJSUnBT4rvBGTeJaD6pL7C3nG5tzKg6+fP4OOysm5lYOdodsRtH4N1m5ch5VrVmLN+jU4nxLPxjdEgbuN3fDy94IkWoINW9chaMMaPGp4zOaVrO+3gfXTfMinlh3RNUI1qkb+rTz2owoJ282eqJXtlex4t3y5HfLv5DMwY2Xn4OTqhLMXYtjP/WnfM4QeDGU+MkmehjsPbnLoId8AX3j6ebI1FFHXjOuZbNAcELgCEeciUVhaiKxrcnazdnFxRmNPI5dJzndCDC0hQFzfy36k51/iCUJuIgeOhuFiRhK7KXfoOxiAYsQVhambzQxXBa1CbFIsrpcVIT3vMoJ3BmPV6gA8667nILn9Q0r4+vmxi3NMwlnk3c5nS7CiBzewau0q9gNrUbeDrLAolsH6zetgb2ePBmUT9GM67Nq3C95+XohOiGEzvqyCTJAR95r1Qbj18Bbr7Lt0nVhutxxu7q44mxjN9q7kWv4Be7BEAbskKas1D0UbrZKqEtg72GH1+tVs2vbnmYNs3kdu0wf+CuM4S6diwmHvZI/ES4lMCUuf3mXXDdo81fU1omWgEc3qVnZHdnByQHHFHR50kjJ4+/ng0F+H0aJpY8rY/7Kf7VOdnZ1w/e51aMe07HXAAeFEURW5iWta2TuWgm2sWrOSAbBx80b2XCDzPeWIitkDsswP3rkVew/t5aW8Wd3MQSrOX4yHr483TyI9UdYXKvj6+uLQX4fQMtBiMQoxgih1ePRpBKwMQMbVDJ4IZBtgb2+H9ZvWoffNAHSjWmzeugkbtmwEmQKSyV99Tx3OXzwPd3c3to8likwmgHb2dghY7Q+aVMIqJvC3nyIcS+X+kgWrdQeR8bSzqyNWrg5Eu14BN3cnBO8Kxqr1q9li/U5FMS+d5PKRfTOHecSS6lLYOS2Hq7srTsacQkR0BMJjwrFmwxp287jz+A7r17OK5PDx88bpmAjoKFjahB7adxo8bqyEs5MzMq9mgag7BYKgzRpteJhnnNAzj98gwgMAAAzGSURBVEjLL9mn0saKAmRQ4AsHB0es2xDEdqfqUQ3uPrnL7AWxGCclp5ifJJ6SPBbICv9S7iW2k1W/1MLP1xdRcVKQ0Y11H+TczOW2EAWnkEry61nsp19QXICBd1oMvFaC+Oc1QUE4fPIwTseE44z0NHbu3snBJ45GHGVxXoeuE38s/4NdYjqHuj4ow7q8pXj+S4C1urMaQZuC4O3jg2vFN2D/hx1u3C+CLCcFfgG+TD127N6BXXt3M59IS7YAVju4uLgg5OAe7D+4n2WhoYdDEHpoDyqbq3jpy2LKKoJV4EfJT+lhXQUcHZ0gL8zGwCjxnSR5sMhNKWqesoGNj2ljRzwpLaO0QSqrK8eGbRu4jpHnJegc7MTd2nvYtGUzVq9ezUt5yIEQ7D4Ywl4DR0/9hZuPbn4RrOT7FRyyDVu2b0ZpZQlWb1oNLz9P5qlpEMmYetO2zfDx8+WYBuTJsO/APuwNC0XY0f1IyUthKm8D63fmccgULipOAgd7R/j4+jDlIg8AimiydftmdjMmI+SoWAkoggkN3t2ae+x7tHbDOgy8IXNAQaNEVu31PU28KyYqSWyAj78PjoUfR89QH1NWyrewtAguTi7s5sGU1QJWXjYnDJDlJMHBxR5hR8JYnqpl/ymKAzWAtNw0uDi6YMe+3WjSNONh/SNs2bYVZ6LPoMvYyYYoA29VbIXf3N+EgRHlF8GqHlEjLTed27o7dAfsXR2w5/AewWV80gjViAYbt25mv7Dazhp2j6GINZ2GDjT1NaN7sBf6SRNsYP3OYNWOanHn4R0OAWRnvxw79uwGDR6B7ciJQyDekvgwWYbMshnSo6K5gnlciiZyq6IYnfpOEK+4IXgDO/s9qBPETRlFWbzBolhatGHq0nWgsrkCm3dvhbuzG+o66gVHPgpgxhbxAitAkQs3Bm9iHjMqNpL971s1LSitKcWKNQHsdZosT2Vv3E59B/aG7UXQhiDmTynEEFFKirm1buN6PG2rZdCph63YAMOHbABR7uKKEuaL7f5YBh9/XzQoGqGbpoAgtPkzcahPT18PyG/I0W7oxJO2GoRLwrFu03qWFJDYj8BKweJoc/ZfYAPoBzDEMO1LIvI1DRRZ9VMcJncvN9S1v196yXmPqKejsxMyObCFATqzkWWQJGN0dnfhQBgrAgPg5u7CMbMoBA/xmSSqkRfJ4RfoBw9vD7h7ucPT25MlCBTFhSKi0ESh+AOUBAG9RdFgNiL/Vj68/b1YAUAu0U4cd8qewxutWLsCHdoOXnqJ/4u7FA9PXy+4ubrB18cHpPFydXPBnkMhGBw3QjOuw8CwBoH+AZDGR3/EsxJFp3hW4dJwODk6YsOGDfNB4Ch/qtu5lFgQWCnwh2+AH7y9vdnthaLPKIf7WQnQbeyFs6MjNgZvQMdzxXybliKPurBOC3lW/k0BVdbSAitVmhwBzyadxVnZOWjeCWElSVJAIq7sG9mIuiBBZUsFbxho4MhskaK4UAS845Lj2HlgJ/b/tQ9ZBVnoHaT4WGSMomet06XCDDxqfIz7tfdxXHocIQdD2F2kx9DD0gEqX7T4Iic6DvND9yaMeNZVh9ikOF7yyYP04J8HIctLgeq1mtW3LPIiTdG4ESVVd3EyJpx51cPHD/LkGqD3KMLKpAmq1xrEJZ9H0aMiDpdkPVhc/uQgarueIjopmmMocGA6y6rGm75JEzsGnjl7BnsO7MahEwdBURUVph7Bh2rKxKxTZFwkknJkoFhb1mUs9fNFwWoVpp3sVyj91B/AoE4kAxLyWVe9VYPEPHSPBpAGiVgC2pUTkOieILgXVIkU8pE2H8SHUkh3jjVKWiD6dsoIzZgOA2/VUI9pOBHPSe9RfpS3deLBtKhGCbAEds24Fsq3A+h/rQTJXrmctyohCDE7MwqbNnpXO6aDakSLgTdqjuXKrIzFPpXyJkmEZkQHch8nuwUuzwqM/A7FR32r4risdE2xBqjd5IlLyguhDDX6Xg2AwgtR5ENqA6lWSZXM/fhWw/0oGgZZl7OUzxeClX4AY8n9poDYgaSBoc6m5ZuX5ikhyC4bVLObB1HUDxUQNOjiwJMwnYXfVvp+9rW3AJfAy0BnE0RhcAXwk4PdIFNxVlaIZZGoy+I9ynp2vk/RD4VJRFIClhTQ5oyXajJoIdsAWhEE4xZqj7AS0DWB6jnXUWyzeKR6UJvpmt4n4DEILSDnPCfJkZJsBSgJk0T8no/s4CdG/hby+OD5d957/NuyPgvWuWmYzWbodLqfT1nfN9TagmmRAfmow63f/xDI7/Nc/D6B4kvv/NvnH5fx6TZ9nbHJp79fWNePy/7+7V1Yh89d0++1knyb3iEiQYZIFEj63vNSSDuiEN0Wg8yWDLR3t+NR2SMUFBYgLy9vKYF1aXXo5zrb9uzfjRWviKyIEWwz9GPkVt+L263FOFd8HuevxSM5T4acnFxcTs9AUorth4a/O3W1gXpxUAs8tgFd+i7UtFaj9HEprt0uQka+HMmXkpAsS5r/6fYUWQpkKSm2X8W2gWlxMH3vfiE2xTBh4ni8lU2VKCopgjxXDnJeTZbJkCRLZoAm01Emg0yWagPr9x4UW/6fmwyCEyZJNsigp1bxFNcqruHCtQRcyE1kS7c02SUkpV60AFZm41ltgPocoH7cM92kHmWmckQ3xiD2yTmkPEpBxYNK3Cq5gav5V3D58mUbWG1g/XGA/FxfkzfG/aEyRHZFQqKQIFsth9k8hRevXqCvtxfV1dU2sH6uA23PfgyQSWNJypWywXJIOqWQdkVDrpJjbnYOs3MzmJmbZvMAQYM17zAYhSy1/Lt6t9oA8GMA8Gv1syBnvT90D1GdkZB2SpCjlmN2bpaBOjs39x6slcOViFZIIemIRJYqG/pxIULyr9VgGwh+2fGy2BOXDZVB0hmFiO4zyNJmYm5uEmCiakVZK19UQtotgbQrCrnqPOgtv5f0yzb+B2iobH3z7YgDGQWRLcR90z0OtBLRE4FMTSbmCKmzZHw1856y1ryoQYwiGpKuKOYV1FOC9ZNtQL7dgNj68tN9yYZHUxoUDxYjSiFBVA8RzVxgZpZMWoFZK7A2v2pGfE8878JS+tPQNNJi0+7YqPMPwwAF/+gcUyBXl48zijOI6Zbipv4WMAXMLAQr7cTy9HlMWWMUMcjV5kJt1sA4bsTQ5HMYLEYHRB0WtfqxDewPG9j/AoUmi7Z56zS2jDOhYrgC5/rO44wiEil9yVC87cAcEdaZWUwxeYUgupqcNePxUAWiuqIQ1XEGCb2JqH39FEOTL6Cd1LA5HIkXRNO1/0KH2drw6WX5e/cNRVJnu2P6DYnJQbS/7UCWSs4iK6lCgnxNPsZm3wrs6uwMH4lpZdEViQYoTE2mWo4z3RGQKqJwaSAdDa/pZ21MGFwkFOX3bpAt/58Hpu/d92SXy0blUwZ0jSpQoCtEbE8cIhWRuKi8gPpXjZiZmQbhco7Jq5XoilwGxqfH0PCyARd6EhDZdRoxCinSlOkoe16OntEe3q1970bY8v/vAtR6bMmQpe9dP568eoIcTS7ieuJ4VT/bexYlhhK8mRzB7Mwsu7IIMCWRgIWy0skcZvF68jUqhh4j0bLZiuyKQlzPOeRq81BsLEb5iwd4NFyBx8OVqHhBqcKWbH3wtzDw+MVjlA6W4qquEEn9MkgUUkR1SXCuNxbXtUXQvzOwMoAI6Ps/K8oquLzOMtl9ZX6FJ8+rkK5MZz1tVNcZRCokLIc933sOcb1xiO+9gPg+W7L1wT/DQLQihgFKxJD2SQn9CbhjLGY/uumZGWHpf4/U+TPmWUWwsi52ZhZj0+/Q+aYTV7UFkCmTENsdyyowksNGKSKtEl3bkq0P/h4GIjsliOmORlJPIvLUuagdrsEL8zCmZ2cxO0siAGuqOo9VYYNFkgHB3ZWoq8ArzMzNYGR6BB2v21FiKkW++irkqmxkqrKQocpEJqcsvhbOF7u38Ll4LR7Fb+go3rM+Lny+8Nr6XfFcfEe8pqN4j47W963PFz6z/mbhM/G7xe5bfyeWbf2++Fy8J76zWF7iO4t9I34nvrPwWvxmYb4Lr62/X5iHeC3mJV4vPFo/p2diWnhfKDtbk40i/Q3UDTew/xVJo2gfRZibJqMVgUV9j1LLGVPWOdC/94Al4NKHfHdWOJ+YHWOedtj8AsMTL/DS/AIvJ4c/kb70jJ6LScxDvBaP4v3PHa3fXexcvEfHhfmIzxbeX3gtvvc1x4XfiteLlU/PvibPhe+IeS48/pMyxDzEMqyvxfOFR/HdheVZ31/4zDqPF3g3/Razc1OYmyXCOMv7Jdr5C7v/jzA6f8PCBsxf205sPbBke8AG1iU7NLaKLewBG1gX9ojtesn2wP8DUstaSBE0XhkAAAAASUVORK5CYII=;" vertex="1" parent="WIyWlLk6GJQsqaUBKTNV-1">
          <mxGeometry x="500" y="160" width="171" height="93" as="geometry" />
        </mxCell>
        <mxCell id="bjYGnmnEsGefj7SVSaNM-15" value="" style="shape=image;verticalLabelPosition=bottom;labelBackgroundColor=#ffffff;verticalAlign=top;aspect=fixed;imageAspect=0;image=data:image/png,iVBORw0KGgoAAAANSUhEUgAAAKoAAABdCAYAAAA14f0jAAAgAElEQVR4Ae2dh1vU2Pf/91/7fdcCDB1BOipi723tuura69ooKtIRdFWs2AAFFFFAehF7AaUXlZkkr99zbmYUWRW3uCv7CTz3SWaS3GTOfd9zT88PWH8WBUYABX4Y7hl1XccwNHT5N2Rfx8BABwzV5JNr39patPgcBgwwNFAYAl2XXQNd19ANBzrS7J+F4zBANTAMB5qumQCVre4A9VmOyY0EvFjNosEwGDBBqRk6JtvT0IQBGoIpwZeAWKb5p/+GBapd13ir6TS0DpBTb+fgHYMdhQab8nU2F+hskXbd3H//2fmdOvaJc9R5153XDjr+UT9yfPA5zn251tU+Oj7knq57qK3zHoO/G9zH+/0hfaj+P/UcQ57Ldf3Q/uX3D/3O9fk9bYb273qGIfdwne+6XraD20e0c/bhOq6uHdrfkPu6+nXdZ3B/748Nuub9d4Oe44vjcd1g43XYVugg4fYAZ+o0al8Z9Dg0HNgRAOufxylfBKpDh8JHdtbm2Yk5pRGWpROUYRCYAQEZBuPSpekEpBtfbHLel85xHR+6/dI1cmzo+a7Pn7vOdXzo9lPnu84ZfJ8vnTf4/D9ynuu6P7r91D0GP6urv0+dN/iYa9+1HXy+6zvXdnD/g89z7bvOG7p1HfcXrGToBGXqhGYbRJ+En6/q5D3U6HpnRze+cukXaVPwbWgarf3viL2lMe20hm+6hmeKji1Fw6a2qK1nko5XsoHNahYNvgYDKQZeKWBLlia40RHwTj6lseemg+Z2uxI1RQzQNFMncgkCH3FUkTk1h0Zrr4ONBQ5CMgWIGp7JMgs0Zp3VWZevs+Omwa7bBrtvGewpMdgt+1azaPAFDOy5bfDrbYOdJbDuOsw5pzH+mAOPFB3vZI2QY4I5O43tpj5kNxxK2fokUHXDoPONxs4iHf9UO+7JOj6pDhbmGiRUalx46KD4pU7pa527bRp322QrzbCaRYMvYqCszaCs3eB2m0Zhq8HFxzqJlRoLczUC0jXFXQOPaWwt1Oh4o6HpAlSxLZl/H3HUN3aD3EYd33QDz2QHPqkaq/M1zj8c4F6Xg8Y+naY+nYZenUZnk/2GXsNqFg2GwYCu8NPQp9HQZyj8VHVp5D52sDZPwy9TxzNFIzhb43i1HUNzKHPoIKCalj+xkT7vNph3xsA9VcOWarAw186V5wa13XYa+nQa+6FRbtJnqJvJDa1m0eDrMKArDDX0CYYw93vt1PVoXH2us+yqhleyA880jZknHbT123EMsgL8oMyzhsGA5qDkiY5nqoFXqoZ3hkHOAwfV3TIQ0rHVLBr8vRho7NGQVt2jk9PsIOKEA49UnaA0nXMNOgOai5/CD+IpkCay6dG7upIV/JJhxnmd8nZh13/vw1mDbdHzPQZ6Nep7HUqUvN1qZ+NNB54pDnzTDJbl6vQNslb9IAYpcW096dJZeE5TGpjnUZ3kap2KboN6C6jWavKtMNCvUy8ya7dBbadBRoOYQGVV14k+5aBv4MPa/4O4SMVu1dhuMD5TwytFmoOSFqjtk44sDvCeA1i0+FsnbX2vQb0o430atX0GZx4YeKc48Ey2E55u0DcwWOsXHzUGda8/GGP9kuBelwBUOrGAatHg22OgvhcuPhZHEngng3+mQe/ARzKqBVQLiN8eiMPR2AKqtSKMiFXRAqoF1P8GUJ8+fUpfby91r0XjMgMGLBn1318Kh1sq/2vH33PUZFNG9csYIqNmZWWRc/o0yedv4Z4iES1gAdUC6j89EYYFamxcHPFxcWw+/BvuEsJnAXVELJX/NJC+9f2GBWpcfLwJ1EMnLI5qybP/2iQdFqiJRxPJOnaMhJMFeKRaMuq35hxW/58Wq4YFaklJCU2NjRQ1vLaAanHU75ejSsi/BKiKZ8riqJ+e7RYX/PZ0GZajSvqJpKmKecrDMk/9axzlf30yDA9UKR5hGNS+0ixlasQu/SM/ZvirgOriqO7fiTIlEVv1kj3QK2kLGo1vzKhwyTB4H03ea9DYL9E3ZlqD+f3wS5RcozIV1HWSrTCoz/f7X+5H7inpN++zHdRzffmab8ExZXDld0tMp6JXj6QF/fPP8Xf8thEJVJP4GnXdDup6JNTQBIY5MOZACNiquxzqnPoeCcCVSK/hOYtcJ3029A8+V/YHf/7yYMu9XAG/Kn/sX4wyk4nX0CO00miUCTRCV4URCdT6Hp2Ld2tJOn2Jy3draeiWKHDXIJigEm6WffUmyTm5lDx+SZMkG37VIOk0vTFo6pNmJioqDunkpibX/jxQhdvfaHxC6rnLnLlVTn3PgDNp7fPXfDPw9BpUvu5nf8ZJknMuU9ba/Ycm3Dd7rq8ah4/pNSKBWtNpZ0vsYTx9/Ji1YBEXSisVpxAQqaW+Xye/8SkhERPw9Q/g3K07NH71smcoUBfUPeRqVSN3X3R9xI0/gPZjQg4e1Kwr15kyYwZb9x6ktv3tv8bFZELffvQS33EBRMfM5Ebz8xEb6D5CgTrA+t37+X8/jsLm6c36HXuo67DT2GNy06r2fqYvWIr72LGMHjOGM4UlKqWhXi3n5jmylAuwTTnWXOolxVuAWNdlZ/6a9UyMiSGn4KbiiC7xokGJGjrSV2MPNPQ6VB9KXHCKF5m5+URFR7Nhx26q2/rVuSptXMmLpmzdpDJ2QfU3ZDVQYoZEt/eIfPkhs1ei3Bv7Ne7L+TIpnZzpfdavyMUyIUVMcS75pQ9f4ubhQXjkJG40PTPFmsFikPSlUtvNFUlWnveTsVv2zZXI/P3yez88j1qh1PXmtYMn69+9P0KBamfDngOMGj2GUaNGERIRQdLpXAXUqo4BMnLz8PLyYez//cjYMW7kFN6mXvJvFAgd3Gh4QtKZXPYkphKbcYJzxWU09prpDtVtbzl1rZiwCZPx8PJm895Yjl8p4kb9U6Uc1fY4KH32mvQLV9mTmMHelAx+u36Tmo43zgE2yLh4jYjoyfy8ZReXy2pJOJ7D3qQMsq4UUvW6j7p+mRhQ0/mO00V3uPvkFcWNT0g/d4X9KVkcu3KDksetlL9o52TBLfalZBKfdZLChkcqfbipD+ok8a1H43rtQ1Jycvk1MY3YzN84V1JOdXu/Amt9t0bpwxbcPGyER02isPGZ+r668x2Xymo5W1LO7aevFVCrO95xo+ExR05eYPfRNA5mnCD3Tg1VHe+ok5SjXoMb9U/Ir2rk1sOXXCyr4WjOBa5V3/9HVowRC1ThqGPd3PENGIdvgD+zFy+j5MFLipueEzEpBpu3F37eftjcbJwpKlUKlyhfv+XfZPaSFYRGRDE+JJTA0AgmTZ3BzoREdU750zZmzl+Ch7sHY8aMISBwHFFTZ6iJUN/l4HJlI4tW/UxYZBSBIeEEBYcRMXEiW/bFced5Gw39OumX8oiIjiYiaiLT584nOCKcwNBwIqJj2HIgzin7GlS/6mXWkhUs+3kDc5YsJ3LSFEJCI4icOJlVG7eycfc+IidPURMxMCSUmQuXUvqkjTpncY/f8ouZv3wlwRETCAwJIzgsjOjpM/k1KY3arrfU9+m/A6pwyBMFJcxbspL123ZT1PiEqrZ+TuUXMW3OHMaHhRMSEcm44BAmTZvN0ZPnKX/ZpXSAo6dzWbB8NYtXrWXitOlMmTOX7KtF7zn7381FB/c3YoG6Yfc+xnrYmL98DcvWrscnIIifd+xl6/4Exo4ezdodu4mYMAVPdy9OF91WgybcTAAVEBTM0nUbSDp9nt1HUhWIAkNDqGjpVhwv6fQFgiMisdlsrNu6Hfl8tbKJshed/JqUgZ9/IAuXr1Ic5UjWaUIiIwkIGq+4Z32PQ3H0CdHRjAsKZtn6TRw5fkrdJ3xiNCHhYRTWPlLcsOplFyFR0Xh5+7Jo5Vrij51k96FkJkyOwcfHh2lzF7AnMY0jx3OYvWQZY8a6c/TkBe619VPT/pblG7fiN26cusfRk+fYlZDIhJipTJgylSsVtWqZH8xRZekvedjCivWbCYmIYn9yJvdaexRXnPvTMgKCxrEj9jApZ3PZezQdT98AJkyZQkFtsxJ/DqQdJygkjNCISNZu20nKuUsU3n/+jyhoIxeoew7g7unNxj2x/Ha1kOCoaGy+fowLDiY4NIK8+gfETJ+Hh4eNU4Ul5vLW9pbsKzc4mJHNxbIqKl71kFfzgMVr1+Fp8yC/5j513XaqO94QPXsuPn7+HMvNV+YdWWZvNDxlxYbNaqByisoU+EWejc88wdwlyzlfUkltp52Mi3lETY5m3tLlXKloUH2WPHnNpn2xePn6KEuEmIzKX3YSGjUJ34AAjuXmUdX+lpsPX7Jmy3Y8vbxZt2sf5S09VLe/Jfn8FUaPGs2aLTu509JFTcc7hMMJoES8qHjZzbWqJlZu2kpQSCgpORdNoD5qYazNRnB4JGdvV7LnSCohYZGs2LiF/IaHqnSOrDLefgFMmTWbooYnlLd2K0BPmjEXbx9vLt2pUkDdn5rNuPEhLFv3C0VNT5Usb8qz3z7Jc4QCdYANew7i7unD9oOHuf2ola2xhxnt5o6ntw8HUrKo7bIzfeYCPGzuTqAaiMx2ve4RyTkX+TUxle1xR/hl936mzp2Lt7sHF8uqqe8eUCWKYmbPwdvPn8zL102O0WtwtaqZhctXMikmhrLnnaaS1QvlzzuUmezO03ZEPBAZOWJyNOt27TGVqT6De+1vSMq5gIe3D/tTM2ns1ilv6SIsahJBYWGcL7mnZL17r3rYdjAeX/9x7E5MV8pLbZeD83drGD16FIvXbqD0ZaeqIJJX3awAKauC+i179jFt3jwCg4M5nJWjRITbj1oY42HD29eHn9ZtIig0guCwSDKv5CPcXxSpzEv5uI1xIzwyStFza+whtsYdJmziZNxtnly8XaUALUANDA5ly/54RROlvIrSJzL3nzA5/ZFrRjBQTY66LfaIWkbza5pZvGYTq7bspLKtRylWQ4F6+9ErdsQdIXKyLI/TmbVwCdPmLiQoPBxvdxsXymt/B9SMy9dN81SvzrWq+8xfulwB9Z7IbX06db2oSVEmYkPngNK6PwdUWVJtvr7sS0n/AlB72R6bgG9A4O+AOmrUaBavXU/pi04qXnaxaV8cEZNjmDB1OjMWLGLG/AWERUUp+fLQsRxFl5KHLxlr88bD5sGEmGl4+/gSNmES2XnF1HWZQM24lMfo0WPw9w9g7qLlzF68VLVZC39i1uJl5NeYnPdAWraShbccSLCA+jWzTOyooky5e3qxPfaIIppw0LvPOih91kZdn6YE/KFAzbx0Xclc0+cv5PSN2xQ2POZiaTXLN27G2+bJhbIqBdSabgcxc+bi5etHRm6B05lgkFf7gMWr1jBhUjQ3m18qoMrSl1teR+yxk1yvf6yWw98DFSra3yjZz8PH5xNADVdig/z2e6962X7wE0Atq+VHAeoaE6gXblcSFTOVmQsXkX25QK0UuXeqlOwYEBzCocyTiluWPmzFzcuHcaFhSsn7ae0GJWNv2L5X/QbhqpmX83Hz8GTq3AUU1T1WDguxMGRdLeTYpXylTInp7kBalgnU/RZQv2oJMYF6EHebAPWw8jiJe7Be3J99Bg8kFqDfYOrM+Xh4uHO68LYCW8KJc0qrXbp6HddrH3Gj6SmnrpcSM3s+Ph6eXCqroq77neKgi1f/jLevP3uPZlDY8ISyl13cfNTC+p271dIaf/wsxc3PKKh/wsJV6/Dy8eNMwU1qOgdIz80jcnI069XS/0ZZEyranED19mZ/SgYNsvS/7FIy6sdLv8lR/QKGLP1lNfw4ejRLZOl/3smxK4VKbBBZ88LdamUj/a3gFrOXLCUwKJBDWadUJZs7j1tws7kREjWBgsZnXKlsZNb8hcpaIaa5yrZ+zhSVERISRfikGC7fqebmgxcUVD9g9rLVzF2yjIL6R05lKuvD0u+0vZp0/+eWfo9k8Eox8E+X5L7BJX2kGIUzzO97CUoRoP6yNw5PPz92JCQqEJpG7w/eIjFGT5m3CC8fb84W3VV+7vOllcxe/BP+AQFMmjaLWYuXEzF5ipIRvX0DuFJeg8iD0texSwVMnDqD8cGhTJ+7kPSL+UqBycjNxzcoGP9xQcxesJjoWXPx8vZmwvRZyhYqHPbY5QKip05j054DSjsXk1Vl2xtlJ/X19+dAcia13RoVzzsJnzSN0Kgocksr1X0rXveyM+EIgeND2JOcqeTM+k47F8tqcbe5s3TDRkpfdHGj4SEzFyzBy8+PSdOmM3PhEiXSiLITGhnF4RM51PbqlD5+pegUOWkyBU3P1X1jM08SEh6plnexh5Y8bGXL3nglkweFjGfe0hVMipmqFCyxbtxsFhuyzoHM35RStuNAPI3OQBdxPtR9FBfxYQy+ZnX8unPMGmcXHhu4Jet4pNkJTBWgSvVpE6w/qM13BlQBU/yJM8xZsYrEUxeUvPf7gAuDX/bFM2/5Sq5W1KtlUOyox/NuMmfpCoLCwpk4fQbb4xO5fq+B+avWcVMM6t0ateLd6bZz/OoNft6yk0WrNpCeW0Bjn0blq16yLl1n9sKlBAaHMT4sguUbtnCj/qFSwkSxOHe7gjVbdxKfeZLajrc09evUdrwjp7CUeStWkXrhirIYVLZ0s3LjLpat30xe9X2a+g1lcZDftGjNelIu5pmKXKeD/NpHzFm8gt1H0ilr7VORY6Lozf5ppflbpk1jz9EUjl8tZO2u/WRdK1Igv/usjbnL17By0zbE8iATqbKlh71H0li8ej3Z14rVCnLrYQu7DqcxYepMfMaNIzhyIj/v2s+dRy3USlBPn0H6pRssXbeZxBNnlSVEPGASE+HykH0d6P48kHMfG4xNGcAryUFgmkHXGzt2u513797xXQLVJIhumo3EHTjInTiYWPXdDqUdK26rzjFD74S493vFFelAvDxCaAGoLMdCfNfAiMFcoqDM6tninpQ4AIOmd4YClXx/X3ETMzpLuPh9GbxeQ23VsX5DiSPmYJqBLvfFfSruThFVZGI4XaLy7PKszX0aD/rM+0qwjXk+NLxxhjXKeXJNn0Zzv06zcLceu/JWieu0qVejuU/uKx4sQ03k+/3mM8qkEaO/eJtE45d4AAGhcgnL7xEaCG36JTLNLNDcJK5p9YziTtVU/+r+8tv7zQLOg+n+d+4LjWRMZIJdfCK1JQbwSh0gMG2AqvpGiouLyc7O/o6BKkRW1QRN4pk/aPBslZkuWrkMhmi3Jleo79UUsRtlwITQStbSaHgjoDaJcl/iW1UlOecAOf37alBkYsg1Uga+X1cBLA0CYNfAKwCa8QRyjmrOe5ixBDoygeTZxGogS6eaSAp4UlLeHBRZtiUOQH2W0ovOSWJ+Z/4WmRgygArMAmjVh/jjZVKZJcZl4qjJ12tXz6ommnpGoYM8n/M3On34cq7cS0x5zW9QE9kMeTQnset88zk1U3FVMRaDaf937xvUdNk5X93CgsN32HDoErsPJXA0/hAJ8QnEx8d/x0D9xna7v5MrfB99/fHAERV08g/TWSaeTIbG7gHKn7eTX9nAqcv5JGdmc+hoCvvj44iLTeBgXCLxsbHExcURGxtrAfX7ANnfzaG+v/5kUriW+dquASTM8tSVPJIzjpFwOJH4uHjiD8ZyMCGO2Lj9HIw9RGzsQQVUAet3LKN+f8S2QP0Xx8Qpuoh4JoEyogjeanrC1dIKfrtwhZTMbA7GJhAbG0987AEFVOGmFlD/4WXvfxvopiytlDYFWPlsKswSgFP2vIOzlS+YltjAT4dusfHQaZJSUkhISPjegfoheU4E+0alDDi1YaeG/7898H+Ru/1bk1SSD51JiaLYmcqbKI1mxWl5U2RQUh9RqS1UNzRTUVHBtWvXvt+lX8CpZp/Stp2gdWV7CmhVpPsIHax/CyTf8X1dQJUifVIa3VV20uFw0NnZ+f0CVUBa3f6Goubn5JbVceF2FZfu1XPrcatpPrKA+lXu6JGy6nwOqKbj1Ph+gVr6rB1Jolu/fQ+zFvzElFnzmL1oKVv2x5Jzq4za7oH/1ECNFEB9q+f8HFDFhSrtu9T6a7sdJJ25pIIo/PwCiJoUo/zdERMmqVypkImTuV4rQdBi9DaN4sO7+Uxh3rQdDrU5OgV9tTS69j92HX76OrMwhmvw5BnkPNezmNdY4omLPl/ajhigKg+MEyhlL7tV+oW7pycrN27jcnk9hY1mJNSMhUsYPWY0qzdvpaK1x+km1FRQyJ1n7YhPu+TRK8pfdqs4UlWgQdymXQOUPm9XXitJz7j9+JUKKKl83Ufp8zYq28S/bnqTxMtV2/WO2886KH9h5hOJV6im6w2lzzu4+bCVm49aVcRVXZfk9ZsZq9Vddu4966S210H16zfqHtVtb5z9WoD9M0B1vcDnu+KoJlgNBYSFK9cSEBxGwomzVHbZqe03qOwc4FLpPQLGhzB5xhyVbCd+7Oq2Pk4VFLFu+27m/LScBSvXsutwCtdrHpiVVPp0Kl60seHXgxQ3PuPoqfMsXbeeC3eqybpapPKsTuQXK9dnUy8qIPlW83PW7drLvsRUGnvsVEn26o1S1u08qAJF5i5fxY6Eo1ytaqKma0C5L289eaWi44sbmkm7kMei1es5f/MOVZLBqlydFlg/B9bPcdTvDqguX75shaOu+GUzYz3cmbdslQJn7eseFYZX2faWoqbHFN5/qoIqxJ99MPOkSuBz97DhHxCEr9843N09mTlvESXNz6np0ShueMT/jXUjKnoqNh9/vP18OXmtiIPpJ/APCmH5hk2UPetQlobqjrdkXcxn9NixLFi+hqr2NypFOjg0BJvNg8CgYHz9/HFzc2fW/MVcK5dqLhpXqpsY7W4jIGQ87h4eePn4kp2br2JClY/9O9a6Pwegf+r7EQPUDwQRs5RO5uUbKuNyzOjRqgjFlJlzVFjdrUevzIAMVbxBp7qliylzF+Dr60fSiTPUtL9RgdBrt+7A28+PjftjqenVuHX/GT+OdVdZA8knz1Imqc/dDoqbnrJo5SoV45l87io1fcLRW1QAs4+fD3n3GhVQgyInqudIOncJiSkVjrt68w5s3t5KwZNgkKvVTfzfKDfcvTw5cuIMd0XU6HVwXwWHWNz0wxj/nhYjCKhmVFF9j6kcScEEKX6wPS6RyIkxjBnrpoAi8aGS8lvTKRFKcPfxa2JmzGTSlCkcv1LA3aft3Hrwgn3Jabh5erN8w1ZqezVuNj9XVVVCgiMpbHyuQvOEcLWd79h4IBablw+b98YhBSgkEc/m7Uv45KnUdg4gcaUBoWH4BY1HouzlHhKwvC0uUWXKrt+2S4kLknPlPtpGcGQUVa96VGSXRFRZ3PT3wBwK2hEDVDOczdSaJSbSVGjsKuVZUnclRXnR6p9Vrr9fgB9b9sdx73Ufdx69Imb6DETx8g8MZnxYJIFhEXgHjMPD5smydRuUclN83wRqaGgUxc0tKq1FEavX4MS1IqKnzmDOoqXkVTaSfPIc3r6+7Ig/qsLsKl50ExASjtvY0fgGjicoLIqgsEg8fX1VlZK123ar2NG86ibcRrkTOmEC9R1SIEI8aRZQh4LyU59HDFBFNnVVCDl9q4JN+xNUpPm9lm7FEUVuLGp6RkJ6ttL6JV++9FkHdx6/YvLMWaoyyta9cRzOOk2CtOzTHM7O4XThHar7dYqbnjFmzCg+Aqp4unoN7jx5zc/bdhEUGq7stotWrFaVUqS4gyhB91524h8Sjrd/IFv2H+JQ1mkOZ53iUNZJtcSfK6lQAcaSd+/2o5sF1D8hi48YoEpRMaUZ92icKixl+twFTJkxh+N5xWo5FhlQCpKl5lxg1KgfVfJa6dN2Kp53EDNrNmGRE8m6fIOKlh7ETHXqxm3FEY/lXqemT+dm03NVyyo0ZBBHdQJVilIc/u0MvoFBBAaNZ1zQeBasWEO9Mxq+qrWXwNAwdVyerbylW1VVkbSX7QlHOZ5XpCLqr1U24f6jGyEToyyO+gfBOmKA+t443mtw+/FrVvyyFS8ff6Knz1ImHyk6IQXNJk2dzhg3dzbv3kdFa59SnuavXIuPXwCSKnz4xBn2p2Yxa/FSYmbOIetSgdL6bzU9ZdTosQSFRnHzQYtKb1EBESonSOdSeR3zlixj7OgfGR8aSvrFq07DveRDDaiEOG9/P5at38Dh46eJTc9SGaGTZswi5ewlFdF/raqBH8eMJTQqXAFVVcZTATVDHQzDy2yfWh7/y9+NGKAOHoS6Ho2zt+6ppDjJppSSOH5BQWobLMl2v2xTle/EgyWxjcevFTF36SpCIieoFhwepbxZW/fFUuJMXiu5/wz/4DAmzJqP2Dtd5RUl1ExyjO619nIwNYuA8cHMW76aipcdzgIUktKic7b4rqqDJTWdpHzO+PAIleG6ae9B9Sxiqbhe/wCfkAimzZ5HQ+c7M6hGcrBUaosF1sFjPHR/RAJVfoQsxzfqHpF06jw74o+weX8cOw8dJeXMRa7XP1HgUiDrM1R5x4t3a1SRiO3xR9h1OIm0c1dU/STJgxKt+15rN4d+O0NKbp4qQiZ5Q2ZspHlc6p9KOaDDx8+oWgBin1XaujN2Uty1uWW1HMo+zY74ROVQSDp7mRuNZqqxnFv2spNDJ8+TfuGaKnNpavsSomiBdCgwh34esUBVbkmxP0oynKpRb1fJcMrN6cy7EaB+8MG74lflGknQE3A4k++cYFUZlrIv179PWDOBJFYH4ayS4SnysOl6NZUtsy/5TvqTWvnOpDmVPSmA/vDZnBiSWPehj/dizR+U24YO5n/584gF6mBuZ4LGLDYrgFKypQKa7H8IDDHBbXJKE6xmqrAUxZW06fvO4GvhdIO5nOpPCi2oasxOTup0ecr9pDqLmdEpEemu/l33NitHS59yDzku/bmAL9YMl9ftvwy0v/rbRi5QLe7zPxXGaAHVAvyIALwFVAuoFlD/qlxiXW/ZU10YsDiqxVEtjuqaDdbW4ox/FQMWR7U4qsVR/+ossq63OOAO2CkAAASESURBVLELA8NyVE3XP1ScTjGQAgB+SXCvS4goxm+LmBYNvj0GhgXqrZISmpqaKG58jUeqBVQLlN8elJ+i8bBATUxMJOvYMeJP5uORolsc1VpB/pVVdFigxsXHq2ppmxJO4GEt/f/KIH2Kw/yvfTc8UOPiiI+PY9uR03imGgqsfslQ3inRRw4rMc3isN9w8grGzCAeeRdB7iNT9PRKNvDNGPL6nuysLHJyTpF2oZSADHl1io5Pik5xq7w9RF5GYMVS/q9xt3/k96rSk66wSY3qXo3zDzQ8kww8UzT8Mw16BjRX/Ql+ePL4Mb293TzshFk5Op5JdmxpDk406lR1/zuC9T9CKItTfkNO+XW4UeGQKsPCoKpLJ6vBgS1FxzNVZ+IJjW77oBei6bqOw9B51Wew76aGe5Id97QBVlzRKW/7uhtawLLo9GcwYMbsmq8LutemsadUQ17K55lmsOicnR47uKD6g6YbODB4p+kUPzZUEVWvFB2vbIO8VnmlozUIf2YQrGu+BjdmNoYEtl98YmfKSXnPlIZ/uoOjZRrvHC6Ywg8uIUDe5Pew0yAwU8PnCLinDvBznoPiV5LcZjff46Qi4OXFW84Xd6nUDDNaXiLmrWbR4PMYMNN1VOaFvCOrVxR1s9BIySsH227p2JLEPPqWiOwBXtrtiC/K9fceqPJF/4DBxXo7HpkG7skGtlTYUqhT2qqpl4NJDaX7znwh84a6yj0SWcNqFg2Gw4DKd5M3DL7R1ftVBUN3XzvYU+rAN03kU42gDI29Nw10hxTwHaRMuRArW90waOk3WHZxQAm1Hika4zJ0frqkc+q+g/Juh/MFrmIJMJPcVJ6QsgyYpgbTSmDtW3T4FAbk3QvmKzpru3TO3Hew7LKGX6aGTaxNqQaLz+m8fmtg6BoOtA8y6mCgGhgMaA4etTtYdE7DO82ByKt+6QZhJzQWnLeztVBj312DgxU6seU6cWWG1SwaDIuB+DKdhAqdA2UGm4ph/gWdyOMavmkansm64qgLzhlUt+oMGBq6Aqog0vz7aOmXL0W50nUHje06WwochGRqeKVo2JJ1/FIdBKZrBB8zCM42CM0yW0iWgdUsGgyHgdBsndAsncBMk3sKpmzJdgKPafySZ6dKQKqJpm/W7XeBVKA6BKgGmuHAMHR0zeBxh52cGgerrmiEZYlFQFfotyWLBws85N3qyRo2cb1azaLBFzDgmWKY2EkxFG48UxyEHXOw4pLGyVoHze0OBvTB0By81v8OqCKn6hi6jm5oGLqDnnca9a8NrjQbpNwz2HPTYPN1gw35+vv2S76B1SwaDIeB9fkGGwsMdhdrJJU7yG1yUN/qoOutw4m7j8E5+NPHHNUQjmoC1TAcal+AK004bfeAxoteg0edBg86DB6066o97NCxmkWDL2HgQYdOs+CkU+dlj073Ox27JgC1K+1eMUixkX7m7yOgYhgKlKL9m/uyMfcRDisgdn1UW6cs4XwXkOudQNbWosvnMKAAZEqhClvmeYIrA/296vR7tH4M1N8ft76xKPBdUOD/A7j6xlZN4WVdAAAAAElFTkSuQmCC;" vertex="1" parent="WIyWlLk6GJQsqaUBKTNV-1">
          <mxGeometry x="820" y="160" width="170" height="93" as="geometry" />
        </mxCell>
      </root>
    </mxGraphModel>
  </diagram>
</mxfile>
